<?xml version="1.0" standalone="no"?><!DOCTYPE svg PUBLIC "-//W3C//DTD SVG 1.1//EN" "http://www.w3.org/Graphics/SVG/1.1/DTD/svg11.dtd"><svg class="icon" width="200px" height="78.17px" viewBox="0 0 2620 1024" version="1.1" xmlns="http://www.w3.org/2000/svg"><path d="M684.60380094 506.61987875C683.40770281 393.47137625 783.73058563 339.22390156 788.23694188 336.48497937 731.85023 259.75696344 644.00187781 249.22431969 612.7615775 248.02276906 538.05613437 240.960665 466.936805 288.97468906 429.00947563 288.97468906 391.18463844 288.97468906 332.65105438 249.05749813 270.69817719 250.07587156 189.21302563 251.20436937 114.11506063 294.17886219 72.17202594 362.09042281-12.45329312 498.73566031 50.5179575 701.24917156 132.99640531 812.16466437 173.31702125 866.38815031 221.38556281 927.37390062 284.45494437 925.1430725 345.24988437 922.911155 368.20254219 888.55685656 441.66827469 888.55685656 515.18416156 888.55685656 535.79477844 925.1430725 600.08969563 924.01348531 665.46295625 922.911155 706.90443781 868.77271625 746.906675 814.35405875 793.20342125 751.37081375 812.24940594 690.36652906 813.39534875 687.2961425 811.92993781 686.63976219 685.915475 641.69830437 684.60380094 506.61987875M563.77279344 174.61700562C597.25809312 136.81724656 619.87820094 84.29795375 613.72325469 32 565.4595425 33.81431844 507.0240875 61.861025 472.36340656 99.61826188 441.31827687 133.11991719 414.17982031 186.49076187 421.43273375 237.83903375 475.29313906 241.74461656 530.2406075 212.34371281 563.77279344 174.61700562M1234.90232563 791.06976781L1327.33023219 791.06976781 1327.33023219 549.95348844C1342.60093063 553.16837188 1360.28279094 553.97209344 1379.57209344 553.97209344 1490.48558187 553.97209344 1609.43627937 502.53395375 1609.43627937 353.04186031 1609.43627937 296.781395 1588.53953469 250.16558094 1553.97953469 220.42790656 1517.00837187 187.47534875 1459.94418594 171.40093063 1384.39441906 171.40093063 1320.90046531 171.40093063 1271.87348844 177.02697688 1234.90232563 183.45674375L1234.90232563 791.06976781ZM1327.33023219 250.16558094C1339.38604625 247.75441906 1361.08651156 244.53953469 1390.02046531 244.53953469 1464.76651156 244.53953469 1516.20465125 282.31441906 1516.20465125 357.06046531 1516.20465125 435.82511656 1464.76651156 480.02976781 1379.57209344 480.02976781 1357.87162812 480.02976781 1340.99348844 479.22604625 1327.33023219 475.20744219L1327.33023219 250.16558094ZM2010.49302313 518.60837188C2010.49302313 424.57302312 1974.32558187 338.57488344 1844.12279094 338.57488344 1784.64744219 338.57488344 1732.40558188 355.45302313 1701.06046531 375.54604625L1720.34976781 437.43255781C1748.48 418.94697688 1788.66604625 406.89116281 1828.04837187 406.89116281 1917.261395 406.89116281 1917.261395 472.79627938 1917.261395 505.74883719 1765.35813969 505.74883719 1669.71534875 560.40186031 1669.71534875 670.51162813 1669.71534875 738.82790656 1717.13488344 799.9106975 1799.91813969 799.9106975 1855.37488344 799.9106975 1898.77581406 774.19162812 1923.69116281 739.63162813L1926.10232563 739.63162813 1932.53209344 791.06976781 2016.92279094 791.06976781C2011.29674375 762.13581406 2010.49302313 723.55720906 2010.49302313 685.78232562L2010.49302313 518.60837188ZM1919.67255781 641.57767437C1919.67255781 693.01581406 1877.87906937 731.59441906 1827.24465125 731.59441906 1792.68465125 731.59441906 1762.14325625 709.89395375 1762.14325625 660.86697687 1762.14325625 582.10232562 1846.53395375 568.43906937 1919.67255781 568.43906937L1919.67255781 641.57767437ZM2380.20465125 348.21953469L2308.67348844 597.37302313C2300.63627937 627.1106975 2291.79534875 660.06325625 2285.36558188 685.78232562L2282.95441906 685.78232562C2276.52465125 660.06325625 2267.68372062 626.30697688 2258.84279094 597.37302313L2178.4706975 348.21953469 2076.39813969 348.21953469 2228.301395 756.50976781C2232.32 765.3506975 2233.12372063 770.97674375 2233.12372063 775.79906937 2233.12372063 787.85488344 2198.56372062 877.87162813 2102.11720906 912.43162812L2126.22883719 991.19627938C2147.9293025 986.37395375 2188.91906938 971.10325625 2229.10511656 934.13209344 2282.1506975 882.69395375 2319.12186031 800.71441906 2371.36372063 655.24093063L2478.258605 348.21953469 2380.20465125 348.21953469Z" /></svg>