<?xml version="1.0" standalone="no"?><!DOCTYPE svg PUBLIC "-//W3C//DTD SVG 1.1//EN" "http://www.w3.org/Graphics/SVG/1.1/DTD/svg11.dtd"><svg class="icon" width="200px" height="200.00px" viewBox="0 0 1024 1024" version="1.1" xmlns="http://www.w3.org/2000/svg"><path d="M128 2.56h768a128 128 0 0 1 128 128V896a128 128 0 0 1-128 128H128a128 128 0 0 1-128-128V130.56A128 128 0 0 1 120.490667 2.858667L128 2.56z" fill="#EB5505" /><path d="M128 0h768a128 128 0 0 1 128 128v386.56H0V128A128 128 0 0 1 120.490667 0.213333L128 0z" fill="#FFFFFF" /><path d="M201.088 254.08C246.016 201.088 327.466667 177.066667 445.44 182.016l-41.685333 158.933333-1.408 4.352c-14.848 46.336-15.914667 69.461333-3.157334 69.461334 19.712 0 51.456-33.194667 60.16-45.653334 5.418667-7.68 9.344-21.632 13.013334-35.882666l2.56-10.026667c1.194667-4.693333 2.389333-9.173333 3.626666-13.397333l0.64-2.090667c6.144-19.968 10.837333-65.706667 38.229334-97.962667 18.261333-21.546667 43.306667-30.72 75.093333-27.733333l-21.973333 83.882667c-11.093333 42.453333-18.858667 72.661333-23.466667 90.666666l-2.176 8.832-0.597333 2.389334c-3.968 16.512-5.034667 25.301333-5.12 30.464v0.64c0.085333 4.181333 0.810667 5.717333 0.938666 7.210666v0.469334c0 3.541333 15.744 20.693333 56.746667-3.584 27.349333-16.170667 46.805333-44.672 58.368-85.504l0.853333-3.882667c11.818667-53.418667 25.173333-88.021333 40.106667-103.850667 18.432-20.864 43.605333-30.08 75.605333-27.733333l-11.52 43.434667c-8.234667 30.933333-15.786667 58.88-22.613333 83.882666l-3.456 12.629334c-16 58.24-26.453333 89.514667-11.989333 92.8l0.853333 0.213333c14.165333 2.645333 27.562667-9.258667 63.061333-49.578667a735.573333 735.573333 0 0 0 69.461334-93.696h43.392a732.586667 732.586667 0 0 1-93.866667 120.746667c-55.210667 57.941333-78.336 59.562667-113.664 55.893333-29.098667-3.072-36.992-16.341333-42.624-31.744l-0.64-1.834666-0.426667-1.28-2.389333-6.912c-31.232 35.157333-72.405333 52.48-117.76 45.44-45.354667-6.997333-42.154667-21.333333-60.245333-45.44-31.402667 36.096-72.917333 46.890667-99.285334 41.941333l-0.853333-0.170667c-26.282667-5.376-35.541333-7.765333-46.634667-41.813333-43.136 42.325333-110.464 61.824-152.192 34.048-41.770667-27.818667-34.773333-107.050667 32.682667-186.496z m154.837333-40.064c-61.013333 16.896-104.234667 61.013333-129.621333 132.437333-37.717333 106.026667 38.442667 65.237333 51.285333 55.381334l0.384-0.298667c11.648-9.258667 37.12-33.28 47.786667-70.442667l2.048-7.253333c6.954667-24.874667 16.341333-61.482667 28.117333-109.824z" fill="#EB5505" /><path d="M535.552 579.242667l95.274667 271.488h-52.181334l-18.048-51.413334h-97.877333l-18.176 51.413334H392.277333l96.128-271.488h47.146667z m251.861333 0h55.210667l-98.133333 193.109333v78.250667h-49.28v-78.208l-98.133334-193.152h55.210667l67.584 132.906666 67.541333-132.906666z m-541.44-1.706667v0.256h53.162667a95.786667 95.786667 0 0 1 95.914667 95.658667 95.786667 95.786667 0 0 1-95.914667 95.701333H246.016v81.365333H196.693333v-272.981333h49.28z m265.898667 82.944l-32.64 92.288h65.024l-32.384-92.288z m-265.856-36.138667v98.261334H299.093333a49.194667 49.194667 0 0 0 0-98.261334H246.016z" fill="#FFFFFF" /><path d="M896 2.56a128 128 0 0 1 128 128V896a128 128 0 0 1-128 128H128a128 128 0 0 1-128-128V130.56a128 128 0 0 1 128-128h768z m0 21.333333H128a106.666667 106.666667 0 0 0-106.666667 106.666667V896A106.666667 106.666667 0 0 0 128 1002.666667h768a106.666667 106.666667 0 0 0 106.666667-106.666667V130.56A106.666667 106.666667 0 0 0 896 23.893333z" fill="#EB5505" /></svg>