<?xml version="1.0" standalone="no"?><!DOCTYPE svg PUBLIC "-//W3C//DTD SVG 1.1//EN" "http://www.w3.org/Graphics/SVG/1.1/DTD/svg11.dtd"><svg class="icon" width="200px" height="131.28px" viewBox="0 0 1560 1024" version="1.1" xmlns="http://www.w3.org/2000/svg"><path d="M1296.085874 1023.995611H118.003304A117.02807 117.02807 0 0 1 0 907.942775V213.576228A117.02807 117.02807 0 0 1 118.003304 97.523392h1178.08257A117.02807 117.02807 0 0 1 1414.089178 213.576228v694.854164A117.02807 117.02807 0 0 1 1296.085874 1023.995611z" fill="#EBF1F8" /><path d="M243.808479 926.47222h195.046783c44.373143 0 97.523392-54.613099 97.523392-97.523392V195.046783H341.33187c-44.373143 0-97.523392 54.613099-97.523391 146.285087v585.14035z" fill="#047AB1" /><path d="M354.497528 689.490378A399.845905 399.845905 0 0 1 243.808479 673.886636v-53.637866a190.170614 190.170614 0 0 0 92.647222 28.281784c37.546506 0 58.514035-26.331316 58.514035-62.414971V438.855262H487.616958v147.260321c0 57.538801-30.232251 103.374795-133.11943 103.374795z" fill="#FFFFFF" /><path d="M585.140349 926.47222h195.046784c44.373143 0 97.523392-54.613099 97.523391-97.523392V195.046783h-195.046783c-44.373143 0-97.523392 54.613099-97.523392 146.285087v585.14035z" fill="#D42D06" /><path d="M585.140349 472.988449c28.281784-27.30655 77.043479-44.373143 156.037427-40.472207 42.910292 1.950468 87.771052 14.628509 87.771052 14.628508v54.125483a198.460102 198.460102 0 0 0-84.357733-27.794167c-59.976886-5.363787-96.548158 28.281784-96.548158 87.283436s36.571272 92.647222 96.548158 87.771052a201.385804 201.385804 0 0 0 84.357733-28.281784v53.637866s-44.86076 13.165658-87.771052 15.116125c-78.993947 3.900936-127.755643-13.165658-156.037427-40.472207V472.988449z" fill="#FFFFFF" /><path d="M926.47222 926.47222h195.046783c44.373143 0 97.523392-54.613099 97.523392-97.523392V195.046783h-195.046784c-44.373143 0-97.523392 54.613099-97.523391 146.285087v585.14035z" fill="#67B637" /><path d="M1170.280699 619.273536c0 39.009357-30.232251 63.390205-70.704459 63.390205H926.47222V438.855262h157.500277l11.21519 0.487617c35.596038 1.950468 61.927354 22.917997 61.927354 59.001652 0 28.281784-18.041827 52.662631-50.712164 58.514035v1.462851c36.083655 2.438085 63.877821 25.356082 63.877822 60.952119z m-124.342324-141.896534a44.373143 44.373143 0 0 0-6.339021-0.487617h-58.514035v61.439736h64.853056c12.190424-2.925702 22.43038-14.140892 22.43038-30.719868s-10.239956-27.794167-22.43038-30.232251z m7.314254 99.473859a41.935058 41.935058 0 0 0-7.801871-0.487617h-64.365439v66.803523h64.365439l7.801871-0.975234c12.190424-2.925702 22.43038-15.603743 22.43038-32.670336 0-17.066594-9.752339-29.257017-22.43038-32.670336z" fill="#FFFFFF" /></svg>