<?xml version="1.0" standalone="no"?><!DOCTYPE svg PUBLIC "-//W3C//DTD SVG 1.1//EN" "http://www.w3.org/Graphics/SVG/1.1/DTD/svg11.dtd"><svg class="icon" width="200px" height="200.00px" viewBox="0 0 1024 1024" version="1.1" xmlns="http://www.w3.org/2000/svg"><path d="M1000.820364 139.636364v628.363636a116.363636 116.363636 0 0 1-116.363637 116.363636h-186.181818l-0.046545-255.627636 23.342545 0.116364h22.458182c13.614545-0.046545 29.323636-0.093091 47.220364-0.209455 100.840727-0.465455 121.134545-0.465455 134.190545-4.817454l1.931636-0.698182 2.839273-1.163637c1.908364-0.861091 3.886545-1.815273 6.144-2.932363 9.611636-4.724364 23.365818-17.733818 27.671273-26.181818a53.364364 53.364364 0 0 0-5.632-57.25091c-9.029818-11.52-25.6-20.410182-47.778909-25.576727-3.979636-0.884364-7.237818-2.373818-6.958546-3.118545 0.162909-0.721455 3.421091-2.048 7.121455-3.095273 30.161455-7.68 47.778909-32.535273 43.636363-61.835636-3.560727-25.134545-22.504727-40.96-55.621818-46.592-3.677091-0.628364-53.527273-1.047273-105.844363-1.186909l-14.289455-0.046546-51.642182 0.023273c-10.635636 0.023273-20.433455 0.069818-28.788363 0.139636L698.274909 256a116.363636 116.363636 0 0 1 116.363636-116.363636h186.181819z m-188.322909 385.931636c23.202909 0.023273 28.997818 0.302545 33.745454 1.978182l1.792 0.698182 0.907636 0.418909c14.196364 6.353455 20.992 20.852364 17.733819 37.562182-1.466182 7.400727-2.792727 9.914182-8.424728 15.546181-9.309091 9.309091-15.36 10.356364-58.717091 10.356364h-4.44509l-7.726546-0.023273c-20.945455-0.069818-22.667636-0.512-23.924364-2.792727-1.629091-3.118545-2.071273-54.597818-0.581818-60.509091l0.884364-3.258182z m-49.05891-96.162909h46.638546c23.109818 0.116364 28.648727 0.651636 32.209454 2.373818 10.053818 5.166545 17.291636 16.849455 17.291637 27.927273 0 12.148364-9.309091 25.320727-20.247273 28.578909-6.074182 1.768727-73.960727 2.792727-75.589818 1.024-0.605091-0.512-1.093818-10.798545-1.396364-22.481455l-0.139636-8.890181c-0.139636-11.869091-0.023273-23.04 0.488727-25.134546l0.744727-3.397818z" fill="#479951" /><path d="M23.272727 256a116.363636 116.363636 0 0 1 116.363637-116.363636h186.181818v628.363636a116.363636 116.363636 0 0 1-116.363637 116.363636H23.272727V616.936727l4.980364 2.048c4.864 2.071273 9.402182 2.932364 38.330182 7.633455 24.808727 3.956364 33.745455 4.840727 60.904727 5.725091 28.928 1.024 66.350545-0.884364 78.545455-3.816728 20.829091-4.980364 30.231273-7.912727 38.888727-11.86909 24.669091-11.473455 38.749091-26.88 47.406545-51.386182l0.535273-1.512728 0.465455-1.419636c1.792-6.027636 2.141091-13.032727 2.210909-52.549818l0.023272-27.857455v-87.389091l-49.338181-0.418909c-26.996364-0.162909-49.594182 0.139636-50.176 0.721455-0.535273 0.395636-0.954182 26.88-1.024 60.509091v22.900363c-0.116364 61.905455-1.163636 70.912-7.354182 84.805819-3.956364 8.96-15.848727 20.549818-25.832728 25.250909-8.96 4.258909-25.693091 8.075636-35.374545 8.075636-18.199273 0-56.785455-8.215273-73.402182-15.569454a21.434182 21.434182 0 0 0-6.283636-2.048c-0.907636 0-5.748364-2.048-10.589091-4.421819-4.980364-2.466909-9.984-4.096-11.008-3.793454-1.349818 0.535273-1.838545 5.213091-1.908364 19.781818V256z" fill="#265797" /><path d="M663.296 139.636364v628.363636a116.363636 116.363636 0 0 1-116.363636 116.363636h-186.181819V594.827636c17.175273 15.941818 40.773818 27.694545 69.818182 34.373819l3.444364 0.791272 7.424 1.698909 6.190545 1.536c14.242909 3.258182 61.253818 4.887273 93.160728 3.095273 16.453818-0.884364 32.628364-2.210909 35.886545-2.955636 3.258182-0.744727 10.682182-2.234182 16.314182-3.118546 25.064727-4.305455 31.744-5.771636 34.699636-7.261091 2.978909-1.629091 3.118545-2.816 3.118546-24.622545 0-12.916364-0.581818-23.133091-1.489455-23.738182-0.721455-0.442182-5.329455 1.186909-10.24 3.723636-4.887273 2.350545-9.774545 4.421818-10.821818 4.421819a16.128 16.128 0 0 0-5.771636 2.094545c-3.863273 1.931636-12.450909 4.747636-28.043637 8.890182-10.519273 2.816-39.447273 6.818909-49.524363 6.818909-10.24 0-30.417455-3.700364-40.96-7.563636-23.738182-8.750545-39.586909-24.901818-47.755637-48.500364-4.584727-13.777455-4.887273-46.871273-0.442182-60.369455 12.334545-37.236364 43.752727-57.088 90.042182-57.088 31.138909 0 65.559273 8.145455 97.140364 23.272728 2.676364 1.186909 5.492364 1.792 6.237091 1.186909 1.047273-0.581818 1.629091-9.192727 1.629091-22.993455 0-21.341091-0.139636-22.248727-3.258182-24.32-3.421091-2.210909-8.145455-3.258182-33.815273-7.400727a596.712727 596.712727 0 0 1-16.314182-2.978909c-8.750545-2.094545-53.410909-5.352727-69.422545-5.189818-9.495273 0.139636-25.646545 1.047273-35.886546 2.094545-50.199273 5.050182-86.853818 18.455273-111.383272 40.773818L360.750545 256a116.363636 116.363636 0 0 1 116.363637-116.363636h186.181818z" fill="#CA4638" /></svg>