<?xml version="1.0" standalone="no"?><!DOCTYPE svg PUBLIC "-//W3C//DTD SVG 1.1//EN" "http://www.w3.org/Graphics/SVG/1.1/DTD/svg11.dtd"><svg class="icon" width="200px" height="40.00px" viewBox="0 0 5120 1024" version="1.1" xmlns="http://www.w3.org/2000/svg"><path d="M243.2 985.6H0V394.72C0 184.768 168.768 0.544 421.92 0.544c253.12 0 421.824 184.224 421.824 394.144 0 210.08-168.672 394.24-421.824 394.24-75.328 0-110.592-9.472-150.432-21.44-18.752-4.64-28.256 0.32-28.256 21.312v196.8z m349.76-590.912c0-82.56-60.8-169.888-171.04-169.888-110.176 0-171.104 87.36-171.104 169.888 0 82.56 60.928 169.92 171.104 169.92 110.24 0 171.04-87.36 171.04-169.92z m677.664 575.008h-242.4V381.76c0-195.84 163.104-369.376 407.648-369.376 244.736 0 407.84 173.536 407.84 369.376v587.936h-242.336v-296.448c0-15.68-9.088-24.416-24.96-24.416h-280.864c-15.872 0-24.928 8.768-24.928 24.416v296.448z m330.752-545.632v-40.128c0-77.792-58.944-160.16-165.504-160.16-106.336 0-165.248 82.368-165.248 160.16v40.128c0 15.584 9.056 24.416 24.96 24.416h280.832c15.872 0 24.96-8.832 24.96-24.416z m1183.68-238.528l-172.448 112.96c-5.056-5.44-11.2-14.176-31.488-30.816-49.696-43.136-106.112-61.664-151.392-61.664-110.592 0-146.624 57.6-146.624 90.56 0 92.8 148.992 92.8 148.992 92.8 216.864 8.096 404.384 96.768 404.384 296.512 0 179.2-149.088 319.264-406.752 319.264-185.28 0-315.648-96.832-387.2-190.08-1.024-1.568-17.92-25.76-21.536-35.84l170.944-105.216c7.136 14.848 25.536 36.8 25.536 36.8v-0.544c48.96 49.44 128.032 99.2 212.256 99.2 117.696 0 164.896-63.808 164.896-123.584 0-107.136-167.04-102.88-167.04-102.88-243.84-12.48-379.264-123.744-379.264-286.4 0-135.904 124.16-284.224 381.408-284.224 124.384 0 248.576 49.408 325.216 135.904 18.112 18.496 24.32 28.16 30.08 37.248zM5120 607.808c0 199.04-163.712 373.44-409.216 373.44-245.536 0-409.184-174.4-409.184-373.44V373.44c0-199.04 163.648-373.44 409.184-373.44C4956.288 0 5120 174.4 5120 373.44v234.368z m-243.2 0V373.44c0-78.176-59.04-160.96-166.016-160.96-106.88 0-165.824 82.784-165.824 160.96v234.368c0 78.24 58.944 160.896 165.824 160.896 106.976 0 166.048-82.656 166.048-160.896zM3782.24 0.544c195.68 0 327.68 135.648 327.68 296.416V985.6h-239.296V296.96c0-49.664-41.44-81.824-90.752-81.824-49.12 0-90.592 32.16-90.592 81.824v431.264h-239.328V296.96c0-49.664-41.6-81.824-90.688-81.824-49.184 0-90.688 32.16-90.688 81.824V985.6h-239.36V296.96c0-160.768 129.568-296.416 327.712-296.416 87.68 0 174.848 30.976 212.736 85.76 37.696-54.784 124.928-85.76 212.576-85.76z" fill="#EB6EA5" /></svg>