<?xml version="1.0" standalone="no"?><!DOCTYPE svg PUBLIC "-//W3C//DTD SVG 1.1//EN" "http://www.w3.org/Graphics/SVG/1.1/DTD/svg11.dtd"><svg class="icon" width="200px" height="200.00px" viewBox="0 0 1024 1024" version="1.1" xmlns="http://www.w3.org/2000/svg"><path d="M6.4 145.6c4.8-48 27.2-86.4 67.2-113.6C97.6 16 124.8 8 155.2 8h713.6c81.6 0 147.2 65.6 147.2 147.2v713.6c0 81.6-65.6 147.2-147.2 147.2H264c4.8-19.2 9.6-38.4 12.8-56 9.6-40 19.2-81.6 28.8-121.6 1.6-9.6 6.4-12.8 16-12.8 65.6-8 129.6-14.4 193.6-25.6 68.8-12.8 136-33.6 195.2-70.4 75.2-44.8 123.2-108.8 137.6-195.2 9.6-54.4-4.8-104-36.8-148.8-35.2-51.2-84.8-88-139.2-118.4-81.6-44.8-168-70.4-259.2-89.6C286.4 152 153.6 144 20.8 147.2H9.6s-1.6 0-3.2-1.6z" fill="#E50012" /><path d="M6.4 323.2c123.2-12.8 244.8-14.4 368-3.2-4.8 22.4-9.6 41.6-16 62.4-51.2 208-102.4 414.4-153.6 622.4-1.6 8-4.8 11.2-12.8 11.2-30.4 0-59.2 1.6-89.6-9.6-57.6-22.4-96-76.8-96-139.2V337.6v-14.4zM340.8 702.4c6.4-27.2 11.2-51.2 17.6-75.2 24-96 46.4-193.6 70.4-289.6 1.6-6.4 3.2-11.2 12.8-9.6 88 12.8 176 32 257.6 70.4 30.4 14.4 59.2 32 83.2 57.6 17.6 19.2 32 40 33.6 67.2 1.6 35.2-16 59.2-41.6 80-28.8 24-60.8 40-96 52.8-62.4 22.4-126.4 36.8-190.4 41.6-41.6 3.2-83.2 3.2-123.2 4.8h-24z" fill="#E50012" /></svg>