<svg xmlns="http://www.w3.org/2000/svg" width="31" height="30" fill="none"><mask id="a" width="31" height="31" x="0" y="0" maskUnits="userSpaceOnUse" style="mask-type:luminance"><path fill="#fff" fill-rule="evenodd" d="M0 0h30.03v30H0V0Z" clip-rule="evenodd"/></mask><g mask="url(#a)"><path fill="#fff" fill-rule="evenodd" d="M25.6 0c2.43 0 4.43 2 4.43 4.44v21.13c0 2.44-2 4.44-4.44 4.44H4.44C2 30 0 28 0 25.57V9.4l.01-5.2A4.45 4.45 0 0 1 4.44 0H25.6Z" clip-rule="evenodd"/></g><mask id="b" width="31" height="31" x="0" y="0" maskUnits="userSpaceOnUse" style="mask-type:luminance"><path fill="#fff" fill-rule="evenodd" d="M0 0h30.03v30H0V0Z" clip-rule="evenodd"/></mask><g mask="url(#b)"><path fill="#F03" fill-rule="evenodd" d="M25.6 0H4.43A4.45 4.45 0 0 0 .01 4.2c17.7-.5 26.32 5.66 24.97 11.8-1.22 5.52-6.84 7.64-15.96 8.33l-1.37 5.68h17.94c2.44 0 4.44-2 4.44-4.44V4.44C30.03 2 28.03 0 25.6 0ZM23.9 16.02c.7-2.87-3.92-5.52-11.33-6.52L9.9 20.68c6.21.3 13.26-1.58 14.02-4.66ZM5.85 30H4.44C2 30 0 28 0 25.57V9.4C3.99 9 7.7 9 10.96 9.31l-5.11 20.7Z" clip-rule="evenodd"/></g></svg>