<?xml version="1.0" standalone="no"?><!DOCTYPE svg PUBLIC "-//W3C//DTD SVG 1.1//EN" "http://www.w3.org/Graphics/SVG/1.1/DTD/svg11.dtd"><svg class="icon" width="200px" height="53.24px" viewBox="0 0 3847 1024" version="1.1" xmlns="http://www.w3.org/2000/svg"><path d="M1433.941333 209.423515h-212.216242a29.478788 29.478788 0 0 0-29.137455 24.886303l-85.829818 544.178424a17.687273 17.687273 0 0 0 17.501091 20.41794h101.313939a29.478788 29.478788 0 0 0 29.137455-24.917334l23.148606-146.773333a29.478788 29.478788 0 0 1 29.106424-24.917333h67.180606c139.791515 0 220.470303-67.646061 241.539879-201.69697 9.495273-58.647273 0.403394-104.727273-27.058424-136.998788-30.161455-35.436606-83.657697-54.178909-154.686061-54.178909zM1458.424242 408.172606c-11.605333 76.148364-69.787152 76.148364-126.04509 76.148364h-32.023273l22.465939-142.211879a17.687273 17.687273 0 0 1 17.470061-14.925576h14.677333c38.322424 0 74.472727 0 93.15297 21.845333 11.139879 13.032727 14.553212 32.395636 10.30206 59.143758zM2068.293818 405.721212h-101.624242a17.687273 17.687273 0 0 0-17.470061 14.925576l-4.499394 28.423757-7.105939-10.30206c-22.000485-31.930182-71.059394-42.604606-120.025212-42.604606-112.298667 0-208.213333 85.054061-226.893576 204.365576-9.712485 59.516121 4.096 116.425697 37.85697 156.113454 30.968242 36.491636 75.279515 51.696485 128 51.696485 90.484364 0 140.660364-58.181818 140.660363-58.181818l-4.530424 28.237576a17.687273 17.687273 0 0 0 17.43903 20.48h91.539394a29.478788 29.478788 0 0 0 29.137455-24.917334l54.923636-347.818666a17.625212 17.625212 0 0 0-17.408-20.41794z m-141.653333 197.787152c-9.805576 58.057697-55.885576 97.031758-114.65697 97.031757-29.509818 0-53.092848-9.464242-68.235636-27.399757-15.018667-17.811394-20.728242-43.163152-15.949576-71.400728 9.153939-57.561212 56.009697-97.807515 113.881212-97.807515 28.858182 0 52.317091 9.588364 67.770182 27.679031 15.484121 18.276848 21.628121 43.783758 17.190788 71.897212zM2609.524364 405.721212h-102.120728a29.602909 29.602909 0 0 0-24.420848 12.939636l-140.846546 207.468607-59.702303-199.369697a29.571879 29.571879 0 0 0-28.299636-21.038546h-100.352a17.687273 17.687273 0 0 0-16.787394 23.396849l112.484849 330.100363-105.751273 149.286788a17.687273 17.687273 0 0 0 14.429091 27.927273h101.996606a29.447758 29.447758 0 0 0 24.234666-12.660364l339.657697-490.278788a17.687273 17.687273 0 0 0-14.522181-27.772121z" fill="#253B80" /><path d="M2947.630545 209.423515h-212.247272a29.478788 29.478788 0 0 0-29.106425 24.886303l-85.829818 544.178424a17.656242 17.656242 0 0 0 17.439031 20.41794h108.916363a20.635152 20.635152 0 0 0 20.355879-17.43903l24.358788-154.251637a29.478788 29.478788 0 0 1 29.106424-24.917333h67.149576c139.822545 0 220.470303-67.646061 241.570909-201.69697 9.526303-58.647273 0.372364-104.727273-27.089455-136.998788-30.130424-35.436606-83.595636-54.178909-154.624-54.178909z m24.48291 198.749091c-11.574303 76.148364-69.756121 76.148364-126.045091 76.148364h-31.992243l22.49697-142.211879a17.625212 17.625212 0 0 1 17.43903-14.925576h14.677334c38.291394 0 74.472727 0 93.152969 21.845333 11.139879 13.032727 14.522182 32.395636 10.271031 59.143758zM3581.952 405.721212h-101.562182a17.594182 17.594182 0 0 0-17.43903 14.925576l-4.499394 28.423757-7.13697-10.30206c-22.000485-31.930182-71.028364-42.604606-119.994182-42.604606-112.298667 0-208.182303 85.054061-226.862545 204.365576-9.681455 59.516121 4.06497 116.425697 37.825939 156.113454 31.030303 36.491636 75.279515 51.696485 128 51.696485 90.484364 0 140.660364-58.181818 140.660364-58.181818l-4.530424 28.237576a17.687273 17.687273 0 0 0 17.501091 20.48h91.508363a29.478788 29.478788 0 0 0 29.106425-24.917334l54.954666-347.818666a17.718303 17.718303 0 0 0-17.532121-20.41794z m-141.653333 197.787152c-9.743515 58.057697-55.885576 97.031758-114.65697 97.031757-29.447758 0-53.092848-9.464242-68.235636-27.399757-15.018667-17.811394-20.666182-43.163152-15.949576-71.400728 9.216-57.561212 56.009697-97.807515 113.881212-97.807515 28.858182 0 52.317091 9.588364 67.770182 27.679031 15.546182 18.276848 21.690182 43.783758 17.190788 71.897212zM3701.76 224.349091l-87.102061 554.139151a17.656242 17.656242 0 0 0 17.439031 20.41794h87.567515c14.553212 0 26.903273-10.550303 29.137454-24.917334l85.891879-544.147393a17.687273 17.687273 0 0 0-17.43903-20.44897h-98.055758a17.718303 17.718303 0 0 0-17.43903 14.956606z" fill="#179BD7" /><path d="M225.466182 904.657455l16.228848-103.082667-36.150303-0.837818H32.923152L152.886303 40.091152a9.805576 9.805576 0 0 1 9.743515-8.316122h291.064243c96.628364 0 163.312485 20.107636 198.128484 59.795394 16.321939 18.618182 26.717091 38.074182 31.744 59.485091 5.275152 22.465939 5.368242 49.307152 0.217213 82.044121l-0.372364 2.389334v20.976485l16.321939 9.24703a114.501818 114.501818 0 0 1 33.047273 25.196606c13.963636 15.918545 22.993455 36.150303 26.810182 60.136727 3.940848 24.669091 2.637576 54.023758-3.816727 87.257212-7.447273 38.229333-19.48703 71.524848-35.746909 98.769455a203.155394 203.155394 0 0 1-56.630304 62.060606c-21.597091 15.32897-47.259152 26.965333-76.272484 34.412606-28.113455 7.323152-60.167758 11.015758-95.325091 11.015758h-22.652121c-16.197818 0-31.930182 5.833697-44.280243 16.290909a68.57697 68.57697 0 0 0-23.086545 41.208242l-1.706667 9.278061-28.672 181.682424-1.303273 6.671515c-0.341333 2.110061-0.930909 3.165091-1.799757 3.878788a4.809697 4.809697 0 0 1-2.978909 1.086061H225.466182z" fill="#253B80" /><path d="M715.186424 237.909333c-0.868848 5.554424-1.861818 11.23297-2.978909 17.066667-38.384485 197.073455-169.704727 265.153939-337.423515 265.153939H289.388606c-20.51103 0-37.794909 14.894545-40.99103 35.126303L204.675879 832.54303l-12.381091 78.599758a21.845333 21.845333 0 0 0 21.56606 25.258667h151.45891c17.935515 0 33.171394-13.032727 35.995151-30.72l1.489455-7.695516 28.516848-180.968727 1.830788-9.929697c2.792727-17.749333 18.059636-30.782061 35.995152-30.78206h22.652121c146.742303 0 261.616485-59.578182 295.191272-231.982546 14.025697-72.021333 6.764606-132.158061-30.347636-174.452364a144.818424 144.818424 0 0 0-41.456485-31.961212z" fill="#179BD7" /><path d="M675.033212 221.897697a302.762667 302.762667 0 0 0-37.329454-8.285091 474.267152 474.267152 0 0 0-75.279516-5.492364h-228.134787a36.367515 36.367515 0 0 0-35.964122 30.782061L249.793939 546.288485l-1.396363 8.967757a41.456485 41.456485 0 0 1 40.99103-35.126303h85.395394c167.718788 0 299.03903-68.111515 337.423515-265.153939 1.148121-5.833697 2.110061-11.512242 2.978909-17.066667a204.613818 204.613818 0 0 0-31.557818-13.312 280.669091 280.669091 0 0 0-8.595394-2.699636z" fill="#222D65" /><path d="M298.325333 238.902303a36.274424 36.274424 0 0 1 35.964122-30.75103h228.134787c27.027394 0 52.25503 1.768727 75.279516 5.492363a302.762667 302.762667 0 0 1 45.955878 10.953697c11.326061 3.754667 21.845333 8.192 31.557819 13.312 11.419152-72.828121-0.093091-122.414545-39.470546-167.315394C632.335515 21.162667 553.984 0 453.725091 0h-291.064243c-20.48 0-37.950061 14.894545-41.115151 35.157333L0.310303 803.622788a25.010424 25.010424 0 0 0 24.669091 28.920242h179.696485l45.11806-286.254545 48.531394-307.386182z" fill="#253B80" /></svg>