<?xml version="1.0" standalone="no"?><!DOCTYPE svg PUBLIC "-//W3C//DTD SVG 1.1//EN" "http://www.w3.org/Graphics/SVG/1.1/DTD/svg11.dtd"><svg class="icon" width="200px" height="103.70px" viewBox="0 0 1975 1024" version="1.1" xmlns="http://www.w3.org/2000/svg"><path d="M511.21 1.228h1284.256a72.303 72.303 0 0 1 59.141 76.34l-272.891 890.976a110.911 110.911 0 0 1-87.747 52.648H164.612c-35.098-3.51-49.664-33.343-42.996-89.501L386.084 70.197C412.232 27.727 454.351 4.738 511.912 0z" fill="#00908C" /><path d="M512.614 1.228H892.38c-57.737 4.388-99.855 27.202-126.003 70.198l-263.24 861.142c-6.844 56.158 7.371 85.816 42.82 89.326H165.842c-35.45-4.036-49.665-33.695-42.996-89.852L386.084 70.197C412.232 27.727 454.351 4.738 512.088 0z" fill="#E60012" /><path d="M892.38 1.228h467.338c-57.738 4.388-99.856 27.202-126.004 70.198l-263.24 861.142c-6.843 56.158 7.547 85.816 42.996 89.326H545.782q-52.647-5.09-42.995-89.326l263.59-862.37C792.525 27.727 834.643 4.737 892.38 0z" fill="#00508E" /><path d="M469.97 279.735a79.147 79.147 0 0 1-2.457 10.53c-19.305 65.459-38.258 153.38-35.976 164.612 7.195 32.993 54.402 30.36 71.6-3.86 5.792-9.477 40.89-162.507 40.89-173.212 0 0 56.685 0 57.211 0.877a20.533 20.533 0 0 1-1.053 4.739c0 2.281-9.828 37.906-20.357 79.147-22.463 88.8-25.447 97.925-37.205 115.299-38.608 57.035-167.244 55.28-177.774-2.457-2.281-12.987 25.447-157.944 37.731-196.728a390.12 390.12 0 0 1 67.214 1.053z m856.58 0a481.201 481.201 0 0 0-70.198-2.457h-60.545v2.808c0 1.58-4.387 20.182-54.578 235.687a148.467 148.467 0 0 0 59.668 0c0-1.404 2.808-12.46 5.089-24.393 12.986-62.476 11.407-59.492 31.413-59.492 66.16 0 103.54-20.533 121.441-66.512s6.142-77.217-32.29-85.64z m-84.939 113.193h-12.636l9.126-39.837c8.424-37.029 9.126-40.012 11.583-39.486s10.705 1.229 20.532 1.93c63.529 4.74 35.625 79.148-28.605 77.393z m-431.888-30.36c8.073 2.106 14.566 8.6 14.566 14.215 0 20.883-42.82 35.098-58.439 19.655s16.321-40.714 43.873-33.87z m-148.642 15.97a30.887 30.887 0 0 1-1.053 7.195v3.51l10.003-5.09c26.675-13.512 52.648-11.055 61.247 5.616 5.265 10.003 4.738 15.97-8.774 78.27-2.457 11.232-5.44 26.324-6.67 33.344-2.983 17.549 0 15.619-30.71 16.145-25.622 0-25.622 0-25.271-2.457s3.158-15.092 6.668-30.711c13.689-59.668 13.864-68.091 2.106-68.091-6.493 0-15.794 4.036-16.496 6.844-1.229 5.791-16.496 78.796-17.55 85.991l-1.579 7.547h-26.148c-31.94 1.053-29.658 3.685-22.463-25.447 8.95-36.853 14.215-62.826 17.549-85.991s1.228-22.463 25.095-26.324c10.881-1.58 22.113-3.51 24.92-4.388 8.249-1.93 10.179-1.403 10.004 3.16z m397.842-0.702a64.055 64.055 0 0 1-0.877 7.37l-1.053 4.212 10.003-5.089c52.648-27.026 72.303-4.738 57.035 63.353-3.51 15.443-8.073 36.678-9.828 47.207a120.914 120.914 0 0 1-5.089 20.709 153.205 153.205 0 0 1-52.648 0c0-1.404 2.984-14.917 6.669-30.01 14.04-61.071 14.215-68.968 1.93-69.144s-15.443 3.335-17.549 10.53-14.917 70.197-17.55 80.902l-1.754 8.95h-26.149c-31.94 0.878-29.482 4.036-21.936-27.201s14.566-64.757 17.55-87.747 0-19.128 21.76-22.287c9.477-1.58 20.708-3.51 24.92-4.563 10.705-2.281 12.811-1.93 12.636 1.93z m509.28-1.404c2.983 51.42 4.036 66.512 4.563 67.038a224.63 224.63 0 0 0 15.97-29.132c17.549-33.694 13.337-30.009 31.94-32.641 5.089 0 15.092-2.457 22.287-3.861 17.55-3.861 17.55-5.09-2.808 31.589-28.605 49.488-68.091 118.984-82.13 144.43-42.645 77.919-42.294 77.919-78.972 77.919h-21.41l1.93-6.142c1.053-3.335 2.983-10.355 4.563-15.62l2.808-9.125h7.195c7.721 0 9.125-1.228 16.32-13.513l8.6-14.566c2.457-3.86 10.53-17.549 17.55-31.062l13.687-23.692-3.51-30.36c-4.211-36.327-9.476-78.445-11.757-91.607s-1.93-11.407 13.337-13.688c6.493-1.053 17.55-2.984 23.516-4.388 13.338-2.808 15.619-2.983 16.496-1.58z" fill="#FFFFFF" /><path d="M936.43 378.011c-60.897-11.231-108.63 30.712-108.455 95.117 0 37.205 32.641 55.456 80.2 44.751 70.197-15.443 93.01-127.934 28.254-139.868z m-21.937 82.306c-6.318 21.235-19.656 33.169-28.781 25.973-12.285-9.476 2.281-70.197 18.426-76.339s22.113 11.232 10.355 50.366z m552.626-78.796c-33.344 5.616-32.993 5.44-33.519 8.775s0 2.632-4.563-1.755a35.099 35.099 0 0 0-10.354-7.546c-48.26-22.639-114.597 76.515-82.657 122.845 12.811 17.549 57.737 24.744 67.214 9.476 1.58-2.632 3.334-1.228 2.983 2.106v3.685h27.377c32.642 0 28.43 3.51 34.046-26.323 3.51-20.007 12.635-60.896 23.867-107.928 1.579-7.722 2.632-7.547-24.394-3.335z m-79.674 107.226c-13.162-7.02 0-66.336 16.497-74.76 12.46-6.317 21.76 1.053 21.76 17.55 0 34.396-21.76 65.985-38.257 57.21zM816.92 405.564a20.533 20.533 0 0 1-1.053 7.897c-6.318 26.85-18.603 80.902-20.533 91.08l-2.281 12.11h-27.553c-32.992 0.877-30.886 2.281-24.393-17.55a455.053 455.053 0 0 0 15.443-67.915c3.159-21.41 0-17.55 23.867-21.937 11.232-1.58 22.639-3.51 25.447-4.212 6.142-1.404 10.178-1.58 11.056 0z m146.887 173.562a31.589 31.589 0 0 1-3.86 8.073c-1.931 3.86-3.862 7.195-3.862 7.546 49.49 1.053 51.42 1.053 50.718 3.159l-8.775 29.833h-71.776l-4.037 3.686c-8.95 8.599-58.263 19.304-58.263 12.635l9.125-29.833h6.669c11.407 0 14.39-2.457 24.393-20.358l8.424-16.496a267.275 267.275 0 0 1 51.069 1.404z m230.597-1.053h-35.098c-47.383 0-62.827 2.983-81.429 15.268a47.383 47.383 0 0 1-9.3 5.616 84.061 84.061 0 0 1 2.456-9.301 78.094 78.094 0 0 0 2.632-10.004 169 169 0 0 0-44.224 0c-0.877 1.58-60.896 201.29-63.704 211.996-5.79 22.287 1.053 25.446 54.052 24.569h24.745l5.089-17.55c5.967-20.357 7.195-18.602-12.285-17.549-24.569 2.457-24.042 6.142-7.37-48.085l8.423-28.079h95.995l8.073-3.86a40.89 40.89 0 0 0 20.708-21.235c4.387-9.477 32.29-100.733 31.237-101.786z m-75.461 95.995h-71.777l3.685-13.162h72.654z m14.916-45.804h-21.41a80.025 80.025 0 0 0-46.154 10.705c-5.967 2.983-10.354 4.738-10.003 3.86s2.457-7.72 4.738-15.092l4.563-14.916a412.583 412.583 0 0 1 72.127 0 118.282 118.282 0 0 1-3.86 15.443z m313.781 13.162h-75.286l-3.51 14.917-4.563 15.092h26.675a194.27 194.27 0 0 1 26.675 1.229s-1.58 5.966-6.844 23.34h-55.105l-4.387 14.742c-4.914 17.549-7.02 15.092 20.357 15.092h22.639l-11.056 15.619c-26.85 37.906-26.324 37.38-32.467 40.363a27.201 27.201 0 0 1-13.688 2.808c-8.775 0-8.775 0-6.142-7.37s1.93-6.67-5.265-6.67-5.616 0-5.09-2.28c6.143-19.48 46.857-155.312 46.857-155.663a26.675 26.675 0 0 1 8.424 0h8.073l2.632-8.073 2.457-7.897v10.88c0 22.99 6.669 26.676 45.101 25.798h14.917l4.388-15.092 4.562-14.917h-7.546c-10.705-1.404-11.407-2.106-11.407-14.04v-11.933h-22.638c-68.618 0-102.137 2.983-116.352 10.354-10.88 5.44-10.88 5.44-8.073-2.632a39.486 39.486 0 0 0 1.93-6.494 113.017 113.017 0 0 0-23.515-1.228h-24.394l-3.334 10.53c-1.58 5.966-14.04 47.207-53.876 179.178-1.93 5.79-2.282 6.142-6.318 6.142s-4.914 0-9.652 14.917l-4.563 14.741c0 2.106 2.281 2.282 46.155 2.282 52.647 0 47.207 0 44.926 7.37v2.984h46.856l1.053-4.914c1.404-4.738 1.404-4.738 8.073-4.738s6.669 0 5.616 3.334c-2.808 7.02-2.984 7.02 19.48 7.02 35.098 0 37.204-1.053 64.756-38.784l10.179-13.864 2.808 18.778c4.387 28.078 9.476 32.466 37.38 32.466h15.618l4.914-16.321c5.791-20.006 6.142-17.55-2.632-17.55s-10.88 0-14.39-22.638l-2.457-21.235h-21.235l3.86-5.089 4.037-5.09h55.456l4.036-13.161c5.265-17.55 7.195-15.619-21.41-15.619h-24.744v-3.51c0-1.93 2.105-7.195 6.493-20.006h50.717l4.387-14.04c2.282-7.721 4.212-14.39 4.212-15.092s-33.519-4.036-74.76-4.036z m-174.79 130.742l-36.503-1.053 10.354-35.099 36.503 1.93c-0.351 0.878-2.106 8.951-10.354 34.222z m26.675-88.8c-1.755 5.616-3.51 11.583-4.037 13.69s-1.404 4.737-12.635 6.668a116.527 116.527 0 0 0-19.48 5.967 40.363 40.363 0 0 1-10.003 3.685s2.983-9.126 5.967-19.304 5.791-18.954 5.966-19.655a105.296 105.296 0 0 1 18.954-0.878h17.549z m12.986-43.346l-9.652 1.755a93.362 93.362 0 0 0-19.129 5.09c-5.265 1.93-10.003 3.684-10.53 3.684a135.13 135.13 0 0 1 5.265-19.128l5.616-19.304h17.55a111.789 111.789 0 0 1 17.549 0.877s-6.318 26.324-6.669 26.85z m-315.887 10.53l-8.95 29.307h-50.542c-5.09 16.32-7.02 22.112-7.37 23.165s1.228 2.281 24.92 2.281a134.427 134.427 0 0 1 25.797 1.229 26.324 26.324 0 0 1-1.229 4.738c-1.58 4.914-3.159 9.828-4.562 14.917l-3.335 11.231h-52.648l-5.79 19.656c-8.776 28.605-7.898 29.482 24.393 24.744 13.337-1.755 12.81-2.808 6.844 16.496l-4.914 16.497h-35.099c-54.929 0-55.982-1.404-41.416-49.138 4.563-14.917 8.248-27.553 8.248-27.728a85.64 85.64 0 0 0-14.04 0 54.754 54.754 0 0 1-14.038-0.878c6.142-20.883 8.072-27.727 8.423-28.956s2.457-2.281 15.268-2.281h14.39l7.02-25.447h-13.688c-10.179 0-13.513 0-13.513-1.755s7.546-26.324 8.599-28.079 127.408-1.228 126.53 0z" fill="#FFFFFF" /><path d="M1158.252 711.447c0 1.229-1.404 6.318-2.457 11.232-4.914 23.34-11.582 28.605-38.96 30.185a151.626 151.626 0 0 0-17.549 1.58 56.684 56.684 0 0 0 0 25.972l2.282 3.334h16.496a128.285 128.285 0 0 1 16.496 0c0 1.404-8.95 30.712-9.827 32.116a295.88 295.88 0 0 1-59.843-1.93c-10.354-3.335-10.179-2.282-8.95-54.93l1.228-46.506h42.82v17.55h8.249c9.476 0 10.354 0 14.214-12.636l2.106-6.668h17.55c15.794 0 17.549 0 16.496 2.28z" fill="#FFFFFF" /></svg>