<svg xmlns="http://www.w3.org/2000/svg" xmlns:xlink="http://www.w3.org/1999/xlink" width="22" height="22" viewBox="0 0 22 22" fill="none"><defs><rect id="path_0" x="0" y="0" width="22" height="22" /></defs><g opacity="1" transform="translate(0 0)  rotate(0 11 11)"><mask id="bg-mask-0" fill="white"><use xlink:href="#path_0"></use></mask><g mask="url(#bg-mask-0)" ><path id="路径 1 (轮廓)" fill-rule="evenodd" style="fill:#FFFFFF" transform="translate(8.041666333332614 4.8333330000004935)  rotate(0 3.4166685 6.166683500000001)" opacity="1" d="M6.82,6.04C6.81,5.99 6.8,5.95 6.78,5.91C6.77,5.87 6.75,5.83 6.72,5.8C6.7,5.76 6.67,5.73 6.64,5.7L1.14,0.2C1.11,0.16 1.07,0.14 1.04,0.11C1,0.09 0.96,0.07 0.92,0.05C0.88,0.03 0.84,0.02 0.8,0.01C0.75,0 0.71,0 0.67,0C0.62,0 0.58,0 0.54,0.01C0.49,0.02 0.45,0.03 0.41,0.05C0.37,0.07 0.33,0.09 0.3,0.11C0.26,0.14 0.23,0.16 0.2,0.2C0.16,0.23 0.14,0.26 0.11,0.3C0.09,0.33 0.07,0.37 0.05,0.41C0.03,0.45 0.02,0.49 0.01,0.54C0,0.58 0,0.62 0,0.67C0,0.71 0,0.75 0.01,0.8C0.02,0.84 0.03,0.88 0.05,0.92C0.07,0.96 0.09,1 0.11,1.04C0.14,1.07 0.16,1.11 0.2,1.14L5.22,6.17L0.2,11.2C0.13,11.26 0.08,11.33 0.05,11.41C0.02,11.49 0,11.58 0,11.67C0,11.76 0.02,11.84 0.05,11.92C0.08,12 0.13,12.08 0.2,12.14C0.23,12.17 0.26,12.2 0.3,12.22C0.33,12.25 0.37,12.27 0.41,12.28C0.45,12.3 0.49,12.31 0.54,12.32C0.58,12.33 0.62,12.33 0.67,12.33C0.71,12.33 0.75,12.33 0.8,12.32C0.84,12.31 0.88,12.3 0.92,12.28C0.96,12.27 1,12.25 1.04,12.22C1.07,12.2 1.11,12.17 1.14,12.14L6.64,6.64C6.67,6.61 6.7,6.57 6.72,6.54C6.75,6.5 6.77,6.46 6.78,6.42C6.8,6.38 6.81,6.34 6.82,6.3C6.83,6.25 6.83,6.21 6.83,6.17C6.83,6.12 6.83,6.08 6.82,6.04Z " /></g></g></svg>