<svg xmlns="http://www.w3.org/2000/svg" xmlns:xlink="http://www.w3.org/1999/xlink" width="30" height="30" viewBox="0 0 30 30" fill="none"><defs><rect id="path_0" x="0" y="0" width="30" height="30" /></defs><g opacity="1" transform="translate(0 0)  rotate(0 15 15)"><mask id="bg-mask-0" fill="white"><use xlink:href="#path_0"></use></mask><g mask="url(#bg-mask-0)" ><path id="路径 1 (轮廓)" fill-rule="evenodd" style="fill:#FFFFFF" transform="translate(2.6243062500007 14)  rotate(0 12.25 1)" opacity="1" d="M24.42,1.38C24.45,1.32 24.47,1.26 24.48,1.2C24.49,1.13 24.5,1.07 24.5,1C24.5,0.93 24.49,0.87 24.48,0.8C24.47,0.74 24.45,0.68 24.42,0.62C24.4,0.56 24.37,0.5 24.33,0.44C24.29,0.39 24.25,0.34 24.21,0.29C24.16,0.25 24.11,0.21 24.06,0.17C24,0.13 23.94,0.1 23.88,0.08C23.82,0.05 23.76,0.03 23.7,0.02C23.63,0.01 23.57,0 23.5,0L1,0C0.93,0 0.87,0.01 0.8,0.02C0.74,0.03 0.68,0.05 0.62,0.08C0.56,0.1 0.5,0.13 0.44,0.17C0.39,0.21 0.34,0.25 0.29,0.29C0.25,0.34 0.21,0.39 0.17,0.44C0.13,0.5 0.1,0.56 0.08,0.62C0.05,0.68 0.03,0.74 0.02,0.8C0.01,0.87 0,0.93 0,1C0,1.07 0.01,1.13 0.02,1.2C0.03,1.26 0.05,1.32 0.08,1.38C0.1,1.44 0.13,1.5 0.17,1.56C0.21,1.61 0.25,1.66 0.29,1.71C0.34,1.75 0.39,1.79 0.44,1.83C0.5,1.87 0.56,1.9 0.62,1.92C0.68,1.95 0.74,1.97 0.8,1.98C0.87,1.99 0.93,2 1,2L23.5,2C23.57,2 23.63,1.99 23.7,1.98C23.76,1.97 23.82,1.95 23.88,1.92C23.94,1.9 24,1.87 24.06,1.83C24.11,1.79 24.16,1.75 24.21,1.71C24.25,1.66 24.29,1.61 24.33,1.56C24.37,1.5 24.4,1.44 24.42,1.38Z " /><path id="路径 2 (轮廓)" fill-rule="evenodd" style="fill:#FFFFFF" transform="translate(2.6242687499998283 6.5)  rotate(0 4.75 8.5)" opacity="1" d="M8.88,0.08C8.76,0.03 8.63,0 8.5,0C8.37,0 8.24,0.03 8.12,0.08C7.99,0.13 7.89,0.2 7.79,0.29L0.29,7.79C0.2,7.89 0.13,7.99 0.08,8.12C0.03,8.24 0,8.37 0,8.5C0,8.63 0.03,8.76 0.08,8.88C0.13,9.01 0.2,9.11 0.29,9.21L7.79,16.71C7.84,16.75 7.89,16.79 7.94,16.83C8,16.87 8.06,16.9 8.12,16.92C8.18,16.95 8.24,16.97 8.3,16.98C8.37,16.99 8.43,17 8.5,17C8.57,17 8.63,16.99 8.7,16.98C8.76,16.97 8.82,16.95 8.88,16.92C8.94,16.9 9,16.87 9.06,16.83C9.11,16.79 9.16,16.75 9.21,16.71C9.25,16.66 9.29,16.61 9.33,16.56C9.37,16.5 9.4,16.44 9.42,16.38C9.45,16.32 9.47,16.26 9.48,16.2C9.49,16.13 9.5,16.07 9.5,16C9.5,15.93 9.49,15.87 9.48,15.8C9.47,15.74 9.45,15.68 9.42,15.62C9.4,15.56 9.37,15.5 9.33,15.44C9.29,15.39 9.25,15.34 9.21,15.29L2.41,8.5L9.21,1.71C9.25,1.66 9.29,1.61 9.33,1.56C9.37,1.5 9.4,1.44 9.42,1.38C9.45,1.32 9.47,1.26 9.48,1.2C9.49,1.13 9.5,1.07 9.5,1C9.5,0.93 9.49,0.87 9.48,0.8C9.47,0.74 9.45,0.68 9.42,0.62C9.4,0.56 9.37,0.5 9.33,0.44C9.29,0.39 9.25,0.34 9.21,0.29C9.11,0.2 9.01,0.13 8.88,0.08Z " /></g></g></svg>