<svg xmlns="http://www.w3.org/2000/svg" xmlns:xlink="http://www.w3.org/1999/xlink" width="28" height="13" viewBox="0 0 28 13" fill="none"><g opacity="1" transform="translate(0.0002070312501700755 -0.00013604166633740533)  rotate(0 13.88432 6.465)"><path id="Rectangle (轮廓)" fill-rule="evenodd" style="fill:#FFFFFF" transform="translate(0 0)  rotate(0 12.555 6.465)" opacity="0.35" d="M0 3.04C0 1.36 1.36 0 3.04 0L22.07 0C23.75 0 25.11 1.36 25.11 3.04L25.11 9.89C25.11 11.57 23.75 12.93 22.07 12.93L3.04 12.93C1.36 12.93 0 11.57 0 9.89L0 3.04ZM1.14 3.04C1.14 2.78 1.19 2.53 1.29 2.3C1.38 2.07 1.52 1.87 1.7 1.7C1.87 1.52 2.07 1.38 2.3 1.29C2.53 1.19 2.78 1.14 3.04 1.14L22.07 1.14C22.33 1.14 22.58 1.19 22.81 1.29C23.04 1.38 23.24 1.52 23.41 1.7C23.59 1.87 23.73 2.07 23.82 2.3C23.92 2.53 23.97 2.78 23.97 3.04L23.97 9.89C23.97 10.15 23.92 10.4 23.82 10.63C23.73 10.86 23.59 11.06 23.41 11.23C23.24 11.41 23.04 11.55 22.81 11.64C22.58 11.74 22.33 11.79 22.07 11.79L3.04 11.79C2.78 11.79 2.53 11.74 2.3 11.64C2.07 11.55 1.87 11.41 1.7 11.23C1.52 11.06 1.38 10.86 1.29 10.63C1.19 10.4 1.14 10.15 1.14 9.89L1.14 3.04Z" /><path id="Combined Shape" fill-rule="evenodd" style="fill:#FFFFFF" transform="translate(26.250666666666667 4.188693333333333)  rotate(0 0.7589866666666667 2.2826666666666666)" opacity="0.4" d="M1.52,2.28C1.52,1.29 0.92,0.39 0,0L0,4.57C0.92,4.18 1.52,3.28 1.52,2.28Z " /><path id="Rectangle" fill-rule="evenodd" style="fill:#FFFFFF" transform="translate(2.2826666666666666 2.2826666666666666)  rotate(0 10.272 4.182986666666666)" opacity="1" d="M0,1.52L0,6.85C0,7.69 0.68,8.37 1.52,8.37L19.02,8.37C19.86,8.37 20.54,7.69 20.54,6.85L20.54,1.52C20.54,0.68 19.86,0 19.02,0L1.52,0C0.68,0 0,0.68 0,1.52Z " /></g></svg>