<svg xmlns="http://www.w3.org/2000/svg" xmlns:xlink="http://www.w3.org/1999/xlink" width="30" height="30" viewBox="0 0 30 30" fill="none"><defs><rect id="path_0" x="0" y="0" width="30" height="30" /></defs><g opacity="1" transform="translate(0 0)  rotate(0 15 15)"><mask id="bg-mask-0" fill="white"><use xlink:href="#path_0"></use></mask><g mask="url(#bg-mask-0)" ><path id="分组 1" fill-rule="evenodd" style="fill:#FFFFFF" transform="translate(2.5 2.5)  rotate(0 11.25 12.5)" opacity="1" d="M13.75 21.25C13.75 23.32 15.43 25 17.5 25C19.57 25 21.25 23.32 21.25 21.25C21.25 19.18 19.57 17.5 17.5 17.5C15.43 17.5 13.75 19.18 13.75 21.25ZM0 17.5C0 20.26 2.24 22.5 5 22.5C7.76 22.5 10 20.26 10 17.5C10 14.74 7.76 12.5 5 12.5C2.24 12.5 0 14.74 0 17.5ZM16.25 21.25C16.25 21.94 16.81 22.5 17.5 22.5C18.19 22.5 18.75 21.94 18.75 21.25C18.75 20.56 18.19 20 17.5 20C16.81 20 16.25 20.56 16.25 21.25ZM2.5 17.5C2.5 18.88 3.62 20 5 20C6.38 20 7.5 18.88 7.5 17.5C7.5 16.12 6.38 15 5 15C3.62 15 2.5 16.12 2.5 17.5ZM8.75 6.88C8.75 10.67 11.83 13.75 15.63 13.75C19.42 13.75 22.5 10.67 22.5 6.88C22.5 3.08 19.42 0 15.63 0C11.83 0 8.75 3.08 8.75 6.88ZM11.25 6.88C11.25 9.29 13.21 11.25 15.63 11.25C18.04 11.25 20 9.29 20 6.88C20 4.46 18.04 2.5 15.63 2.5C13.21 2.5 11.25 4.46 11.25 6.88Z " /></g></g></svg>