<svg xmlns="http://www.w3.org/2000/svg" xmlns:xlink="http://www.w3.org/1999/xlink" width="30" height="30" viewBox="0 0 30 30" fill="none"><g opacity="1" transform="translate(0 0)  rotate(0 15 15)"><path id="圆形 1" fill-rule="evenodd" style="fill:#FFFFFF" transform="translate(0 0)  rotate(0 15 15)" opacity="0.1" d="M15,0C6.72,0 0,6.72 0,15C0,23.28 6.72,30 15,30C23.28,30 30,23.28 30,15C30,6.72 23.28,0 15,0Z " /><path id="路径 1 (轮廓)" fill-rule="evenodd" style="fill:#FFFFFF" transform="translate(9.83333333333394 9.83333333333212)  rotate(0 5.165 5.165)" opacity="1" d="M0.29,0.29C0.25,0.34 0.21,0.39 0.17,0.44C0.13,0.5 0.1,0.56 0.08,0.62C0.05,0.68 0.03,0.74 0.02,0.8C0.01,0.87 0,0.93 0,1C0,1.07 0.01,1.13 0.02,1.2C0.03,1.26 0.05,1.32 0.08,1.38C0.1,1.44 0.13,1.5 0.17,1.56C0.21,1.61 0.25,1.66 0.29,1.71L8.62,10.04C8.67,10.08 8.72,10.12 8.77,10.16C8.83,10.2 8.89,10.23 8.95,10.25C9.01,10.28 9.07,10.3 9.13,10.31C9.2,10.32 9.26,10.33 9.33,10.33C9.4,10.33 9.46,10.32 9.53,10.31C9.59,10.3 9.65,10.28 9.71,10.25C9.77,10.23 9.83,10.2 9.89,10.16C9.94,10.12 9.99,10.08 10.04,10.04C10.08,9.99 10.12,9.94 10.16,9.89C10.2,9.83 10.23,9.77 10.25,9.71C10.28,9.65 10.3,9.59 10.31,9.53C10.32,9.46 10.33,9.4 10.33,9.33C10.33,9.26 10.32,9.2 10.31,9.13C10.3,9.07 10.28,9.01 10.25,8.95C10.23,8.89 10.2,8.83 10.16,8.77C10.12,8.72 10.08,8.67 10.04,8.62L1.71,0.29C1.66,0.25 1.61,0.21 1.56,0.17C1.5,0.13 1.44,0.1 1.38,0.08C1.32,0.05 1.26,0.03 1.2,0.02C1.13,0.01 1.07,0 1,0C0.93,0 0.87,0.01 0.8,0.02C0.74,0.03 0.68,0.05 0.62,0.08C0.56,0.1 0.5,0.13 0.44,0.17C0.39,0.21 0.34,0.25 0.29,0.29Z " /><path id="路径 2 (轮廓)" fill-rule="evenodd" style="fill:#FFFFFF" transform="translate(9.83333333333394 9.83333333333212)  rotate(0 5.165 5.165)" opacity="1" d="M0.44,10.16C0.5,10.2 0.56,10.23 0.62,10.25C0.68,10.28 0.74,10.3 0.8,10.31C0.87,10.32 0.93,10.33 1,10.33C1.07,10.33 1.13,10.32 1.2,10.31C1.26,10.3 1.32,10.28 1.38,10.25C1.44,10.23 1.5,10.2 1.56,10.16C1.61,10.12 1.66,10.08 1.71,10.04L10.04,1.71C10.08,1.66 10.12,1.61 10.16,1.56C10.2,1.5 10.23,1.44 10.25,1.38C10.28,1.32 10.3,1.26 10.31,1.2C10.32,1.13 10.33,1.07 10.33,1C10.33,0.93 10.32,0.87 10.31,0.8C10.3,0.74 10.28,0.68 10.25,0.62C10.23,0.56 10.2,0.5 10.16,0.44C10.12,0.39 10.08,0.34 10.04,0.29C9.94,0.2 9.84,0.13 9.71,0.08C9.59,0.03 9.46,0 9.33,0C9.2,0 9.07,0.03 8.95,0.08C8.82,0.13 8.72,0.2 8.62,0.29L0.29,8.62C0.2,8.72 0.13,8.82 0.08,8.95C0.03,9.07 0,9.2 0,9.33C0,9.46 0.03,9.59 0.08,9.71C0.13,9.84 0.2,9.94 0.29,10.04C0.34,10.08 0.39,10.12 0.44,10.16Z " /></g></svg>