<svg xmlns="http://www.w3.org/2000/svg" xmlns:xlink="http://www.w3.org/1999/xlink" width="60" height="60" viewBox="0 0 60 60" fill="none"><defs><rect id="path_0" x="0" y="0" width="60" height="60" /></defs><g opacity="0.3" transform="translate(0 0)  rotate(0 30 30)"><mask id="bg-mask-0" fill="white"><use xlink:href="#path_0"></use></mask><g mask="url(#bg-mask-0)" ><path id="路径 1 (轮廓)" fill-rule="evenodd" style="fill:#FFFFFF" transform="translate(2.9999999999990905 20.5)  rotate(0 27.000000000000004 17)" opacity="1" d="M27 15.86L3.09 0.32C3.04 0.29 2.98 0.25 2.92 0.22C2.86 0.19 2.8 0.17 2.74 0.14L2.56 0.08C2.49 0.06 2.43 0.05 2.37 0.03C2.3 0.02 2.24 0.01 2.17 0.01C2.11 0 2.04 0 1.97 0C1.91 0 1.84 0.01 1.78 0.01C1.71 0.02 1.65 0.03 1.58 0.04C1.52 0.06 1.46 0.07 1.4 0.09C1.33 0.11 1.27 0.14 1.21 0.16L1.03 0.25C0.98 0.28 0.92 0.31 0.87 0.35C0.81 0.39 0.76 0.43 0.71 0.47C0.66 0.51 0.61 0.56 0.57 0.6C0.52 0.65 0.48 0.7 0.44 0.75C0.4 0.8 0.36 0.86 0.32 0.91C0.22 1.07 0.14 1.25 0.08 1.43C0.03 1.62 0 1.81 0 2L0 29.27C0 29.89 0.11 30.49 0.33 31.06C0.55 31.62 0.86 32.12 1.26 32.55C1.67 33 2.15 33.35 2.69 33.6C3.26 33.87 3.87 34 4.5 34L49.5 34C50.13 34 50.74 33.87 51.31 33.6C51.85 33.35 52.33 33 52.74 32.55C53.14 32.12 53.45 31.62 53.67 31.06C53.89 30.49 54 29.89 54 29.27L54 2C54 1.93 54 1.87 53.99 1.8C53.98 1.74 53.97 1.67 53.96 1.61C53.95 1.55 53.93 1.48 53.91 1.42C53.89 1.36 53.87 1.3 53.85 1.23C53.82 1.17 53.79 1.11 53.76 1.06C53.73 1 53.7 0.94 53.66 0.89C53.63 0.83 53.59 0.78 53.55 0.73C53.5 0.68 53.46 0.63 53.41 0.59C53.37 0.54 53.32 0.5 53.27 0.45C53.22 0.41 53.17 0.37 53.11 0.34C53.06 0.3 53 0.27 52.94 0.24C52.89 0.21 52.83 0.18 52.77 0.15C52.7 0.13 52.64 0.11 52.58 0.09C52.52 0.07 52.45 0.05 52.39 0.04C52.33 0.03 52.26 0.02 52.2 0.01C52.13 0 52.07 0 52 0C51.81 0 51.62 0.03 51.43 0.08C51.25 0.14 51.07 0.22 50.91 0.32L27 15.86ZM27.84 20.07C27.93 20.03 28.01 19.98 28.09 19.93L50 5.69L50 29.27C50 29.51 49.93 29.7 49.79 29.85C49.7 29.95 49.6 30 49.5 30L4.5 30C4.4 30 4.3 29.95 4.21 29.85C4.07 29.7 4 29.51 4 29.27L4 5.69L25.91 19.93C25.99 19.98 26.07 20.03 26.16 20.07C26.25 20.11 26.34 20.14 26.43 20.17C26.52 20.19 26.62 20.22 26.71 20.23C26.81 20.24 26.9 20.25 27 20.25C27.1 20.25 27.19 20.24 27.29 20.23C27.38 20.22 27.48 20.19 27.57 20.17C27.66 20.14 27.75 20.11 27.84 20.07Z" /><path id="路径 2 (轮廓)" fill-rule="evenodd" style="fill:#FFFFFF" transform="translate(3.0000010466310414 3.0000000000004547)  rotate(0 27.000001560017274 10.615002083333332)" opacity="1" d="M0.44,17.98C0.4,18.03 0.36,18.09 0.32,18.14C0.29,18.2 0.25,18.25 0.22,18.31C0.19,18.37 0.17,18.43 0.14,18.49C0.12,18.55 0.1,18.61 0.08,18.68C0.06,18.74 0.04,18.8 0.03,18.87C0.02,18.93 0.01,19 0.01,19.06C0,19.13 0,19.19 0,19.26C0,19.32 0.01,19.39 0.01,19.45C0.02,19.52 0.03,19.58 0.04,19.65C0.06,19.71 0.07,19.78 0.09,19.84C0.11,19.9 0.14,19.96 0.16,20.02C0.19,20.08 0.22,20.14 0.25,20.2C0.28,20.26 0.32,20.31 0.35,20.36C0.43,20.47 0.51,20.57 0.61,20.66C0.7,20.76 0.8,20.84 0.91,20.91C1.02,20.98 1.14,21.04 1.26,21.09C1.38,21.14 1.51,21.17 1.64,21.2C1.77,21.22 1.9,21.23 2.03,21.23C2.16,21.23 2.29,21.21 2.42,21.19C2.55,21.16 2.67,21.12 2.79,21.07C2.91,21.01 3.03,20.95 3.13,20.88L27,4.43L50.86,20.88C50.97,20.95 51.09,21.01 51.21,21.07C51.33,21.12 51.45,21.16 51.58,21.19C51.71,21.21 51.84,21.23 51.97,21.23C52.1,21.23 52.23,21.22 52.36,21.2C52.49,21.17 52.62,21.14 52.74,21.09C52.86,21.04 52.98,20.98 53.09,20.91C53.2,20.84 53.3,20.76 53.39,20.66C53.49,20.57 53.57,20.47 53.65,20.36C53.68,20.31 53.72,20.26 53.75,20.2C53.78,20.14 53.81,20.08 53.84,20.02C53.86,19.96 53.89,19.9 53.91,19.84C53.93,19.78 53.94,19.71 53.96,19.65C53.97,19.58 53.98,19.52 53.99,19.45C53.99,19.39 54,19.32 54,19.26C54,19.19 54,19.13 53.99,19.06C53.99,19 53.98,18.93 53.97,18.87C53.96,18.8 53.94,18.74 53.92,18.68C53.9,18.61 53.88,18.55 53.86,18.49C53.83,18.43 53.81,18.37 53.78,18.31C53.75,18.25 53.71,18.2 53.68,18.14C53.64,18.09 53.6,18.03 53.56,17.98C53.52,17.93 53.48,17.88 53.43,17.84C53.39,17.79 53.34,17.74 53.29,17.7C53.24,17.66 53.19,17.62 53.13,17.58L28.13,0.35C28.05,0.3 27.97,0.25 27.87,0.2C27.78,0.16 27.69,0.12 27.59,0.09C27.5,0.06 27.4,0.04 27.3,0.02C27.2,0.01 27.1,0 27,0C26.9,0 26.8,0.01 26.7,0.02C26.6,0.04 26.5,0.06 26.41,0.09C26.31,0.12 26.22,0.16 26.13,0.2C26.03,0.25 25.95,0.3 25.86,0.35L0.87,17.58C0.81,17.62 0.76,17.66 0.71,17.7C0.66,17.74 0.61,17.79 0.57,17.84C0.52,17.88 0.48,17.93 0.44,17.98Z " /></g></g></svg>