<svg xmlns="http://www.w3.org/2000/svg" xmlns:xlink="http://www.w3.org/1999/xlink" width="24" height="24" viewBox="0 0 24 24" fill="none"><defs><rect id="path_0" x="0" y="0" width="24" height="24" /></defs><g opacity="1" transform="translate(0 0)  rotate(0 12 12)"><mask id="bg-mask-0" fill="white"><use xlink:href="#path_0"></use></mask><g mask="url(#bg-mask-0)" ><path id="路径 1 (轮廓)" fill-rule="evenodd" style="fill:#FFFFFF" transform="translate(15.5 2)  rotate(0 3.25 3.25)" opacity="1" d="M6.33,6.06C6.37,6 6.4,5.94 6.42,5.88C6.45,5.82 6.47,5.76 6.48,5.7C6.49,5.63 6.5,5.57 6.5,5.5L6.5,1C6.5,0.93 6.49,0.87 6.48,0.8C6.47,0.74 6.45,0.68 6.42,0.62C6.4,0.56 6.37,0.5 6.33,0.44C6.29,0.39 6.25,0.34 6.21,0.29C6.16,0.25 6.11,0.21 6.06,0.17C6,0.13 5.94,0.1 5.88,0.08C5.82,0.05 5.76,0.03 5.7,0.02C5.63,0.01 5.57,0 5.5,0L1,0C0.93,0 0.87,0.01 0.8,0.02C0.74,0.03 0.68,0.05 0.62,0.08C0.56,0.1 0.5,0.13 0.44,0.17C0.39,0.21 0.34,0.25 0.29,0.29C0.25,0.34 0.21,0.39 0.17,0.44C0.13,0.5 0.1,0.56 0.08,0.62C0.05,0.68 0.03,0.74 0.02,0.8C0.01,0.87 0,0.93 0,1C0,1.07 0.01,1.13 0.02,1.2C0.03,1.26 0.05,1.32 0.08,1.38C0.1,1.44 0.13,1.5 0.17,1.56C0.21,1.61 0.25,1.66 0.29,1.71C0.34,1.75 0.39,1.79 0.44,1.83C0.5,1.87 0.56,1.9 0.62,1.92C0.68,1.95 0.74,1.97 0.8,1.98C0.87,1.99 0.93,2 1,2L4.5,2L4.5,5.5C4.5,5.57 4.51,5.63 4.52,5.7C4.53,5.76 4.55,5.82 4.58,5.88C4.6,5.94 4.63,6 4.67,6.06C4.71,6.11 4.75,6.16 4.79,6.21C4.84,6.25 4.89,6.29 4.94,6.33C5,6.37 5.06,6.4 5.12,6.42C5.18,6.45 5.24,6.47 5.3,6.48C5.37,6.49 5.43,6.5 5.5,6.5C5.57,6.5 5.63,6.49 5.7,6.48C5.76,6.47 5.82,6.45 5.88,6.42C5.94,6.4 6,6.37 6.06,6.33C6.11,6.29 6.16,6.25 6.21,6.21C6.25,6.16 6.29,6.11 6.33,6.06Z " /><path id="路径 2 (轮廓)" fill-rule="evenodd" style="fill:#FFFFFF" transform="translate(15.5 15.5)  rotate(0 3.25 3.25)" opacity="1" d="M4.5,1L4.5,4.5L1,4.5C0.93,4.5 0.87,4.51 0.8,4.52C0.74,4.53 0.68,4.55 0.62,4.58C0.56,4.6 0.5,4.63 0.44,4.67C0.39,4.71 0.34,4.75 0.29,4.79C0.25,4.84 0.21,4.89 0.17,4.94C0.13,5 0.1,5.06 0.08,5.12C0.05,5.18 0.03,5.24 0.02,5.3C0.01,5.37 0,5.43 0,5.5C0,5.57 0.01,5.63 0.02,5.7C0.03,5.76 0.05,5.82 0.08,5.88C0.1,5.94 0.13,6 0.17,6.06C0.21,6.11 0.25,6.16 0.29,6.21C0.34,6.25 0.39,6.29 0.44,6.33C0.5,6.37 0.56,6.4 0.62,6.42C0.68,6.45 0.74,6.47 0.8,6.48C0.87,6.49 0.93,6.5 1,6.5L5.5,6.5C5.57,6.5 5.63,6.49 5.7,6.48C5.76,6.47 5.82,6.45 5.88,6.42C5.94,6.4 6,6.37 6.06,6.33C6.11,6.29 6.16,6.25 6.21,6.21C6.25,6.16 6.29,6.11 6.33,6.06C6.37,6 6.4,5.94 6.42,5.88C6.45,5.82 6.47,5.76 6.48,5.7C6.49,5.63 6.5,5.57 6.5,5.5L6.5,1C6.5,0.93 6.49,0.87 6.48,0.8C6.47,0.74 6.45,0.68 6.42,0.62C6.4,0.56 6.37,0.5 6.33,0.44C6.29,0.39 6.25,0.34 6.21,0.29C6.16,0.25 6.11,0.21 6.06,0.17C6,0.13 5.94,0.1 5.88,0.08C5.82,0.05 5.76,0.03 5.7,0.02C5.63,0.01 5.57,0 5.5,0C5.43,0 5.37,0.01 5.3,0.02C5.24,0.03 5.18,0.05 5.12,0.08C5.06,0.1 5,0.13 4.94,0.17C4.89,0.21 4.84,0.25 4.79,0.29C4.75,0.34 4.71,0.39 4.67,0.44C4.63,0.5 4.6,0.56 4.58,0.62C4.55,0.68 4.53,0.74 4.52,0.8C4.51,0.87 4.5,0.93 4.5,1Z " /><path id="路径 3 (轮廓)" fill-rule="evenodd" style="fill:#FFFFFF" transform="translate(2 15.5)  rotate(0 3.25 3.25)" opacity="1" d="M0.8,6.48C0.87,6.49 0.93,6.5 1,6.5L5.5,6.5C5.57,6.5 5.63,6.49 5.7,6.48C5.76,6.47 5.82,6.45 5.88,6.42C5.94,6.4 6,6.37 6.06,6.33C6.11,6.29 6.16,6.25 6.21,6.21C6.25,6.16 6.29,6.11 6.33,6.06C6.37,6 6.4,5.94 6.42,5.88C6.45,5.82 6.47,5.76 6.48,5.7C6.49,5.63 6.5,5.57 6.5,5.5C6.5,5.43 6.49,5.37 6.48,5.3C6.47,5.24 6.45,5.18 6.42,5.12C6.4,5.06 6.37,5 6.33,4.94C6.29,4.89 6.25,4.84 6.21,4.79C6.16,4.75 6.11,4.71 6.06,4.67C6,4.63 5.94,4.6 5.88,4.58C5.82,4.55 5.76,4.53 5.7,4.52C5.63,4.51 5.57,4.5 5.5,4.5L2,4.5L2,1C2,0.93 1.99,0.87 1.98,0.8C1.97,0.74 1.95,0.68 1.92,0.62C1.9,0.56 1.87,0.5 1.83,0.44C1.79,0.39 1.75,0.34 1.71,0.29C1.66,0.25 1.61,0.21 1.56,0.17C1.5,0.13 1.44,0.1 1.38,0.08C1.32,0.05 1.26,0.03 1.2,0.02C1.13,0.01 1.07,0 1,0C0.93,0 0.87,0.01 0.8,0.02C0.74,0.03 0.68,0.05 0.62,0.08C0.56,0.1 0.5,0.13 0.44,0.17C0.39,0.21 0.34,0.25 0.29,0.29C0.25,0.34 0.21,0.39 0.17,0.44C0.13,0.5 0.1,0.56 0.08,0.62C0.05,0.68 0.03,0.74 0.02,0.8C0.01,0.87 0,0.93 0,1L0,5.5C0,5.57 0.01,5.63 0.02,5.7C0.03,5.76 0.05,5.82 0.08,5.88C0.1,5.94 0.13,6 0.17,6.06C0.21,6.11 0.25,6.16 0.29,6.21C0.34,6.25 0.39,6.29 0.44,6.33C0.5,6.37 0.56,6.4 0.62,6.42C0.68,6.45 0.74,6.47 0.8,6.48Z " /><path id="路径 4 (轮廓)" fill-rule="evenodd" style="fill:#FFFFFF" transform="translate(2 2)  rotate(0 3.25 3.25)" opacity="1" d="M6.06,1.83C6.11,1.79 6.16,1.75 6.21,1.71C6.25,1.66 6.29,1.61 6.33,1.56C6.37,1.5 6.4,1.44 6.42,1.38C6.45,1.32 6.47,1.26 6.48,1.2C6.49,1.13 6.5,1.07 6.5,1C6.5,0.93 6.49,0.87 6.48,0.8C6.47,0.74 6.45,0.68 6.42,0.62C6.4,0.56 6.37,0.5 6.33,0.44C6.29,0.39 6.25,0.34 6.21,0.29C6.16,0.25 6.11,0.21 6.06,0.17C6,0.13 5.94,0.1 5.88,0.08C5.82,0.05 5.76,0.03 5.7,0.02C5.63,0.01 5.57,0 5.5,0L1,0C0.93,0 0.87,0.01 0.8,0.02C0.74,0.03 0.68,0.05 0.62,0.08C0.56,0.1 0.5,0.13 0.44,0.17C0.39,0.21 0.34,0.25 0.29,0.29C0.25,0.34 0.21,0.39 0.17,0.44C0.13,0.5 0.1,0.56 0.08,0.62C0.05,0.68 0.03,0.74 0.02,0.8C0.01,0.87 0,0.93 0,1L0,5.5C0,5.57 0.01,5.63 0.02,5.7C0.03,5.76 0.05,5.82 0.08,5.88C0.1,5.94 0.13,6 0.17,6.06C0.21,6.11 0.25,6.16 0.29,6.21C0.34,6.25 0.39,6.29 0.44,6.33C0.5,6.37 0.56,6.4 0.62,6.42C0.68,6.45 0.74,6.47 0.8,6.48C0.87,6.49 0.93,6.5 1,6.5C1.07,6.5 1.13,6.49 1.2,6.48C1.26,6.47 1.32,6.45 1.38,6.42C1.44,6.4 1.5,6.37 1.56,6.33C1.61,6.29 1.66,6.25 1.71,6.21C1.75,6.16 1.79,6.11 1.83,6.06C1.87,6 1.9,5.94 1.92,5.88C1.95,5.82 1.97,5.76 1.98,5.7C1.99,5.63 2,5.57 2,5.5L2,2L5.5,2C5.57,2 5.63,1.99 5.7,1.98C5.76,1.97 5.82,1.95 5.88,1.92C5.94,1.9 6,1.87 6.06,1.83Z " /></g></g></svg>