<svg xmlns="http://www.w3.org/2000/svg" xmlns:xlink="http://www.w3.org/1999/xlink" width="30" height="30" viewBox="0 0 30 30" fill="none"><g opacity="1" transform="translate(0 0)  rotate(0 15 15)"><path id="分组 1" fill-rule="evenodd" style="fill:#FFFFFF" transform="translate(2.5 3.75)  rotate(0 12.5 11.5625)" opacity="1" d="M12.5 2.5C11.25 1.25 9.2 0 6.88 0C3.13 0 0 3.13 0 7.5C0 16.25 9.38 21.25 12.5 23.13C15.63 21.25 25 16.25 25 7.5C25 3.13 21.92 0 18.13 0C15.8 0 13.75 1.25 12.5 2.5ZM12.5 20.22C12.92 19.97 13.29 19.74 13.67 19.51C14.77 18.81 15.76 18.12 16.69 17.38C20.42 14.42 22.5 11.18 22.5 7.5C22.5 4.55 20.58 2.5 18.13 2.5C16.78 2.5 15.33 3.21 14.27 4.27L12.5 6.04L10.73 4.27C9.68 3.21 8.22 2.5 6.88 2.5C4.45 2.5 2.5 4.57 2.5 7.5C2.5 11.18 4.58 14.42 8.31 17.38C9.24 18.12 10.23 18.81 11.33 19.5C11.71 19.74 12.08 19.97 12.5 20.22Z " /></g></svg>