<svg xmlns="http://www.w3.org/2000/svg" xmlns:xlink="http://www.w3.org/1999/xlink" width="20" height="13" viewBox="0 0 20 13" fill="none"><path id="Mobile Signal" fill-rule="evenodd" style="fill:#FFFFFF" transform="translate(0.00006703125018248102 0.00022197916700861242)  rotate(0 9.701333333333332 6.089013333333332)" opacity="1" d="M3.42 8.75269C3.42 8.12269 2.91 7.61269 2.28 7.61269L1.14 7.61269C0.51 7.61269 0 8.12269 0 8.75269L0 11.0327C0 11.6627 0.51 12.1827 1.14 12.1827L2.28 12.1827C2.91 12.1827 3.42 11.6627 3.42 11.0327L3.42 8.75269ZM6.47003 5.33003C5.84003 5.33003 5.33003 5.84003 5.33003 6.47003L5.33003 11.04C5.33003 11.67 5.84003 12.18 6.47003 12.18L7.61003 12.18C8.24003 12.18 8.75003 11.67 8.75003 11.04L8.75003 6.47003C8.75003 5.84003 8.24003 5.33003 7.61003 5.33003L6.47003 5.33003ZM11.7886 2.65931C11.1586 2.65931 10.6486 3.16931 10.6486 3.79931L10.6486 11.0293C10.6486 11.6593 11.1586 12.1693 11.7886 12.1693L12.9286 12.1693C13.5586 12.1693 14.0686 11.6593 14.0686 11.0293L14.0686 3.79931C14.0686 3.16931 13.5586 2.65931 12.9286 2.65931L11.7886 2.65931ZM15.9787 11.04C15.9787 11.67 16.4887 12.18 17.1187 12.18L18.2587 12.18C18.8887 12.18 19.3987 11.67 19.3987 11.04L19.3987 1.14C19.3987 0.51 18.8887 0 18.2587 0L17.1187 0C16.4887 0 15.9787 0.51 15.9787 1.14L15.9787 11.04Z " /></svg>