<svg xmlns="http://www.w3.org/2000/svg" xmlns:xlink="http://www.w3.org/1999/xlink" width="30" height="30" viewBox="0 0 30 30" fill="none"><defs><rect id="path_0" x="0" y="0" width="30" height="30" /></defs><g opacity="1" transform="translate(0 0)  rotate(0 15 15)"><mask id="bg-mask-0" fill="white"><use xlink:href="#path_0"></use></mask><g mask="url(#bg-mask-0)" ><path id="路径 1" fill-rule="evenodd" style="fill:#FFFFFF" transform="translate(13 5)  rotate(0 1.9999007700000002 1.9999007700000002)" opacity="1" d="M0,2C0,3.1 0.9,4 2,4C3.1,4 4,3.1 4,2C4,0.9 3.1,0 2,0C0.9,0 0,0.9 0,2Z " /><path id="路径 2" fill-rule="evenodd" style="fill:#FFFFFF" transform="translate(13 12.99960307999936)  rotate(0 1.9999007700000002 1.9999007700000002)" opacity="1" d="M2,4C3.1,4 4,3.1 4,2C4,0.9 3.1,0 2,0C0.9,0 0,0.9 0,2C0,3.1 0.9,4 2,4Z " /><path id="路径 3" fill-rule="evenodd" style="fill:#FFFFFF" transform="translate(13 20.99920616000054)  rotate(0 1.9999007700000002 1.9999007700000002)" opacity="1" d="M2,4C3.1,4 4,3.1 4,2C4,0.9 3.1,0 2,0C0.9,0 0,0.9 0,2C0,3.1 0.9,4 2,4Z " /></g></g></svg>