<svg xmlns="http://www.w3.org/2000/svg" viewBox="0 0 825.28 764.74"><g><path d="M280.3 446.79V47.41c0-12.25-14.84-18.41-23.51-9.74L11.05 283.45C3.94 290.51.01 300.07.01 310.04v417.03c0 20.78 16.85 37.67 37.63 37.67h417.03c9.97 0 19.57-3.98 26.63-11.04l245.74-245.79c8.67-8.67 2.55-23.51-9.74-23.51H317.97c-20.83.02-37.67-16.83-37.67-37.61" fill="#e61e0f"/><path d="M501.21 367.71c-10.05 0-19.62-3.98-26.77-11.08l-96.7-96.75c-13.99-13.94-16.67-36.73-4.16-52.06 14.39-17.61 40.4-18.55 56.04-2.91l53.76 53.76c9.83 9.83 25.79 9.83 35.62 0L759.1 12.26c13.99-13.99 36.78-16.67 52.11-4.11 17.56 14.39 18.54 40.35 2.86 56.04L527.93 356.63c-7.15 7.11-16.71 11.08-26.72 11.08" fill="#facd00"/></g></svg>