<svg xmlns="http://www.w3.org/2000/svg" xmlns:xlink="http://www.w3.org/1999/xlink" width="24" height="24" viewBox="0 0 24 24" fill="none"><defs><rect id="path_0" x="0" y="0" width="24" height="24" /></defs><g opacity="1" transform="translate(0 0)  rotate(0 12 12)"><mask id="bg-mask-0" fill="white"><use xlink:href="#path_0"></use></mask><g mask="url(#bg-mask-0)" ><path id="路径 1 (轮廓)" fill-rule="evenodd" style="fill:#FFFFFF" transform="translate(6.7499999999990905 4.75)  rotate(0 1.25 7.25)" opacity="1" d="M0,13.25C0,13.29 0,13.33 0.01,13.37C0.01,13.41 0.02,13.45 0.02,13.49C0.03,13.53 0.04,13.57 0.05,13.61C0.07,13.65 0.08,13.69 0.1,13.73C0.11,13.77 0.13,13.8 0.15,13.84C0.17,13.88 0.19,13.91 0.21,13.94C0.23,13.98 0.26,14.01 0.28,14.04C0.31,14.07 0.34,14.1 0.37,14.13C0.4,14.16 0.43,14.19 0.46,14.22C0.49,14.24 0.52,14.27 0.56,14.29C0.59,14.31 0.62,14.33 0.66,14.35C0.7,14.37 0.73,14.39 0.77,14.4C0.81,14.42 0.85,14.43 0.89,14.45C0.93,14.46 0.97,14.47 1.01,14.48C1.05,14.48 1.09,14.49 1.13,14.49C1.17,14.5 1.21,14.5 1.25,14.5C1.29,14.5 1.33,14.5 1.37,14.49C1.41,14.49 1.45,14.48 1.49,14.48C1.53,14.47 1.57,14.46 1.61,14.45C1.65,14.43 1.69,14.42 1.73,14.4C1.77,14.39 1.8,14.37 1.84,14.35C1.88,14.33 1.91,14.31 1.94,14.29C1.98,14.27 2.01,14.24 2.04,14.22C2.07,14.19 2.1,14.16 2.13,14.13C2.16,14.1 2.19,14.07 2.22,14.04C2.24,14.01 2.27,13.98 2.29,13.94C2.31,13.91 2.33,13.88 2.35,13.84C2.37,13.8 2.39,13.77 2.4,13.73C2.42,13.69 2.43,13.65 2.45,13.61C2.46,13.57 2.47,13.53 2.48,13.49C2.48,13.45 2.49,13.41 2.49,13.37C2.5,13.33 2.5,13.29 2.5,13.25L2.5,1.25C2.5,1.21 2.5,1.17 2.49,1.13C2.49,1.09 2.48,1.05 2.48,1.01C2.47,0.97 2.46,0.93 2.45,0.89C2.43,0.85 2.42,0.81 2.4,0.77C2.39,0.73 2.37,0.7 2.35,0.66C2.33,0.62 2.31,0.59 2.29,0.56C2.27,0.52 2.24,0.49 2.22,0.46C2.19,0.43 2.16,0.4 2.13,0.37C2.1,0.34 2.07,0.31 2.04,0.28C2.01,0.26 1.98,0.23 1.94,0.21C1.91,0.19 1.88,0.17 1.84,0.15C1.8,0.13 1.77,0.11 1.73,0.1C1.69,0.08 1.65,0.07 1.61,0.05C1.57,0.04 1.53,0.03 1.49,0.02C1.45,0.02 1.41,0.01 1.37,0.01C1.33,0 1.29,0 1.25,0C1.21,0 1.17,0 1.13,0.01C1.09,0.01 1.05,0.02 1.01,0.02C0.97,0.03 0.93,0.04 0.89,0.05C0.85,0.07 0.81,0.08 0.77,0.1C0.73,0.11 0.7,0.13 0.66,0.15C0.62,0.17 0.59,0.19 0.56,0.21C0.52,0.23 0.49,0.26 0.46,0.28C0.43,0.31 0.4,0.34 0.37,0.37C0.34,0.4 0.31,0.43 0.28,0.46C0.26,0.49 0.23,0.52 0.21,0.56C0.19,0.59 0.17,0.62 0.15,0.66C0.13,0.7 0.11,0.73 0.1,0.77C0.08,0.81 0.07,0.85 0.05,0.89C0.04,0.93 0.03,0.97 0.02,1.01C0.02,1.05 0.01,1.09 0.01,1.13C0,1.17 0,1.21 0,1.25L0,13.25Z " /><path id="路径 2 (轮廓)" fill-rule="evenodd" style="fill:#FFFFFF" transform="translate(14.75000000000091 4.75)  rotate(0 1.25 7.25)" opacity="1" d="M0.66,0.15C0.62,0.17 0.59,0.19 0.56,0.21C0.52,0.23 0.49,0.26 0.46,0.28C0.43,0.31 0.4,0.34 0.37,0.37C0.34,0.4 0.31,0.43 0.28,0.46C0.26,0.49 0.23,0.52 0.21,0.56C0.19,0.59 0.17,0.62 0.15,0.66C0.13,0.7 0.11,0.73 0.1,0.77C0.08,0.81 0.07,0.85 0.05,0.89C0.04,0.93 0.03,0.97 0.02,1.01C0.02,1.05 0.01,1.09 0.01,1.13C0,1.17 0,1.21 0,1.25L0,13.25C0,13.29 0,13.33 0.01,13.37C0.01,13.41 0.02,13.45 0.02,13.49C0.03,13.53 0.04,13.57 0.05,13.61C0.07,13.65 0.08,13.69 0.1,13.73C0.11,13.77 0.13,13.8 0.15,13.84C0.17,13.88 0.19,13.91 0.21,13.94C0.23,13.98 0.26,14.01 0.28,14.04C0.31,14.07 0.34,14.1 0.37,14.13C0.4,14.16 0.43,14.19 0.46,14.22C0.49,14.24 0.52,14.27 0.56,14.29C0.59,14.31 0.62,14.33 0.66,14.35C0.7,14.37 0.73,14.39 0.77,14.4C0.81,14.42 0.85,14.43 0.89,14.45C0.93,14.46 0.97,14.47 1.01,14.48C1.05,14.48 1.09,14.49 1.13,14.49C1.17,14.5 1.21,14.5 1.25,14.5C1.29,14.5 1.33,14.5 1.37,14.49C1.41,14.49 1.45,14.48 1.49,14.48C1.53,14.47 1.57,14.46 1.61,14.45C1.65,14.43 1.69,14.42 1.73,14.4C1.77,14.39 1.8,14.37 1.84,14.35C1.88,14.33 1.91,14.31 1.94,14.29C1.98,14.27 2.01,14.24 2.04,14.22C2.07,14.19 2.1,14.16 2.13,14.13C2.16,14.1 2.19,14.07 2.22,14.04C2.24,14.01 2.27,13.98 2.29,13.94C2.31,13.91 2.33,13.88 2.35,13.84C2.37,13.8 2.39,13.77 2.4,13.73C2.42,13.69 2.43,13.65 2.45,13.61C2.46,13.57 2.47,13.53 2.48,13.49C2.48,13.45 2.49,13.41 2.49,13.37C2.5,13.33 2.5,13.29 2.5,13.25L2.5,1.25C2.5,1.21 2.5,1.17 2.49,1.13C2.49,1.09 2.48,1.05 2.48,1.01C2.47,0.97 2.46,0.93 2.45,0.89C2.43,0.85 2.42,0.81 2.4,0.77C2.39,0.73 2.37,0.7 2.35,0.66C2.33,0.62 2.31,0.59 2.29,0.56C2.27,0.52 2.24,0.49 2.22,0.46C2.19,0.43 2.16,0.4 2.13,0.37C2.1,0.34 2.07,0.31 2.04,0.28C2.01,0.26 1.98,0.23 1.94,0.21C1.91,0.19 1.88,0.17 1.84,0.15C1.8,0.13 1.77,0.11 1.73,0.1C1.69,0.08 1.65,0.07 1.61,0.05C1.57,0.04 1.53,0.03 1.49,0.02C1.45,0.02 1.41,0.01 1.37,0.01C1.33,0 1.29,0 1.25,0C1.21,0 1.17,0 1.13,0.01C1.09,0.01 1.05,0.02 1.01,0.02C0.97,0.03 0.93,0.04 0.89,0.05C0.85,0.07 0.81,0.08 0.77,0.1C0.73,0.11 0.7,0.13 0.66,0.15Z " /></g></g></svg>