<svg xmlns="http://www.w3.org/2000/svg" xmlns:xlink="http://www.w3.org/1999/xlink" width="40" height="40" viewBox="0 0 40 40" fill="none"><defs><rect id="path_0" x="0" y="0" width="40" height="40" /></defs><g opacity="1" transform="translate(0 0)  rotate(0 20 20)"><mask id="bg-mask-0" fill="white"><use xlink:href="#path_0"></use></mask><g mask="url(#bg-mask-0)" ><path id="路径 1 (轮廓)" fill-rule="evenodd" style="fill:#FFFFFF" transform="translate(11.5 8.896322076987417)  rotate(0 9.750011139896372 11.10500562817259)" opacity="1" d="M0.56 0.1C0.5 0.13 0.44 0.17 0.39 0.21C0.34 0.25 0.29 0.29 0.25 0.34C0.2 0.39 0.17 0.44 0.13 0.5C0.04 0.65 0 0.82 0 1L0 21.21C0 21.28 0.01 21.34 0.02 21.41C0.03 21.47 0.05 21.53 0.08 21.59C0.1 21.65 0.13 21.71 0.17 21.77L0.29 21.92L0.44 22.04C0.5 22.08 0.56 22.11 0.62 22.13Q0.71 22.175 0.8 22.19C0.87 22.2 0.93 22.21 1 22.21C1.18 22.21 1.35 22.17 1.5 22.08L10.25 17.03L19 11.97C19.06 11.93 19.11 11.89 19.16 11.85C19.21 11.81 19.25 11.76 19.29 11.71C19.33 11.66 19.37 11.6 19.4 11.54C19.43 11.48 19.45 11.42 19.47 11.36C19.48 11.29 19.49 11.23 19.5 11.16C19.5 11.1 19.5 11.03 19.49 10.97C19.48 10.9 19.47 10.84 19.45 10.78C19.43 10.72 19.4 10.66 19.37 10.6C19.28 10.44 19.15 10.32 19 10.23L1.5 0.13C1.44 0.1 1.38 0.07 1.32 0.05C1.26 0.03 1.2 0.02 1.13 0.01C1.07 0 1 0 0.93 0C0.87 0.01 0.8 0.02 0.74 0.03C0.68 0.05 0.62 0.07 0.56 0.1ZM2 19.48L2 2.73L9.25 6.92L16.5 11.1L2 19.48Z" /></g></g></svg>