<svg xmlns="http://www.w3.org/2000/svg" xmlns:xlink="http://www.w3.org/1999/xlink" width="17" height="17" viewBox="0 0 17 17" fill="none"><defs><rect id="path_0" x="0" y="0" width="16.92833333333333" height="16.92833333333333" /></defs><g opacity="0.45" transform="translate(0.0001627604167424579 0.000040690104166962726)  rotate(0 8.464166666666666 8.464166666666666)"><mask id="bg-mask-0" fill="white"><use xlink:href="#path_0"></use></mask><g mask="url(#bg-mask-0)" ><path id="分组 1" fill-rule="evenodd" style="fill:#FFFFFF" transform="translate(0 0)  rotate(0 8.464166666666666 8.464166666666666)" opacity="1" d="M15 7.5C15 3.36 11.64 0 7.5 0C3.36 0 0 3.36 0 7.5C0 11.64 3.36 15 7.5 15C9.2 15 10.85 14.42 12.18 13.36L15.75 16.93L16.93 15.75L13.36 12.18C14.42 10.85 15 9.2 15 7.5ZM13.3367 7.49667C13.3367 4.27667 10.7267 1.66667 7.49667 1.66667C4.27667 1.66667 1.66667 4.27667 1.66667 7.49667C1.66667 10.7267 4.27667 13.3367 7.49667 13.3367C9.01667 13.3367 10.4767 12.7467 11.5667 11.6867L11.6867 11.5667C12.7467 10.4767 13.3367 9.01667 13.3367 7.49667Z " /></g></g></svg>