<svg xmlns="http://www.w3.org/2000/svg" xmlns:xlink="http://www.w3.org/1999/xlink" width="30" height="30" viewBox="0 0 30 30" fill="none"><g opacity="1" transform="translate(0 0)  rotate(0 15 15)"><path id="路径 2" fill-rule="evenodd" style="fill:#FFFFFF" transform="translate(2.5 2.5625)  rotate(0 12.469375 12.46875)" opacity="1" d="M0,12.44C0,19.34 5.6,24.94 12.5,24.94C18.98,24.94 24.31,20 24.94,13.69L22.42,13.69C21.79,18.69 17.54,22.44 12.5,22.44C7.22,22.43 2.86,18.33 2.53,13.06C2.2,7.8 6.02,3.18 11.25,2.51L11.25,0C4.93,0.63 0,5.96 0,12.44Z " /><path id="路径 3" fill-rule="evenodd" style="fill:#FFFFFF" transform="translate(13.232500000000073 2.5)  rotate(0 7.13375 7.13375)" opacity="1" d="M11.77,4.27L11.77,10L14.27,10L14.27,0L4.27,0L4.27,2.5L10,2.5L0,12.5L1.77,14.27L11.77,4.27Z " /></g></svg>