<svg xmlns="http://www.w3.org/2000/svg" xmlns:xlink="http://www.w3.org/1999/xlink" width="22" height="14" viewBox="0 0 22 14" fill="none"><g opacity="1" transform="translate(0 0)  rotate(0 11 7)"><path id="矩形 5" fill-rule="evenodd" style="fill:#FFFFFF" transform="translate(0 0)  rotate(0 11 7)" opacity="1" d="M7,14L15,14C16.86,14 18.64,13.26 19.95,11.95C21.26,10.64 22,8.86 22,7L22,7C22,5.14 21.26,3.36 19.95,2.05C18.64,0.74 16.86,0 15,0L7,0C5.14,0 3.36,0.74 2.05,2.05C0.74,3.36 0,5.14 0,7L0,7C0,8.86 0.74,10.64 2.05,11.95C3.36,13.26 5.14,14 7,14Z " /><path id="矩形 6" fill-rule="evenodd" style="fill:#0C59FF" transform="translate(8 5)  rotate(0 3 0.5)" opacity="1" d="M0.5,1L5.5,1C5.63,1 5.76,0.95 5.85,0.85C5.95,0.76 6,0.63 6,0.5L6,0.5C6,0.37 5.95,0.24 5.85,0.15C5.76,0.05 5.63,0 5.5,0L0.5,0C0.37,0 0.24,0.05 0.15,0.15C0.05,0.24 0,0.37 0,0.5L0,0.5C0,0.63 0.05,0.76 0.15,0.85C0.24,0.95 0.37,1 0.5,1Z " /><path id="矩形 6" fill-rule="evenodd" style="fill:#0C59FF" transform="translate(8 8)  rotate(0 3 0.5)" opacity="1" d="M0.5,1L5.5,1C5.63,1 5.76,0.95 5.85,0.85C5.95,0.76 6,0.63 6,0.5L6,0.5C6,0.37 5.95,0.24 5.85,0.15C5.76,0.05 5.63,0 5.5,0L0.5,0C0.37,0 0.24,0.05 0.15,0.15C0.05,0.24 0,0.37 0,0.5L0,0.5C0,0.63 0.05,0.76 0.15,0.85C0.24,0.95 0.37,1 0.5,1Z " /></g></svg>