<svg xmlns="http://www.w3.org/2000/svg" xmlns:xlink="http://www.w3.org/1999/xlink" width="18" height="17" viewBox="0 0 18 17" fill="none"><defs><rect id="path_0" x="0" y="0" width="18" height="17" /></defs><g opacity="0.9" transform="translate(0 0)  rotate(0 9 8.5)"><mask id="bg-mask-0" fill="white"><use xlink:href="#path_0"></use></mask><g mask="url(#bg-mask-0)" ><path id="路径 1" fill-rule="evenodd" style="fill:#FFFFFF" transform="translate(16 0)  rotate(0 1 8.5)" opacity="1" d="M0,1L0,16C0,16.55 0.45,17 1,17C1.55,17 2,16.55 2,16L2,1C2,0.45 1.55,0 1,0C0.45,0 0,0.45 0,1Z " /><path id="路径 2" fill-rule="evenodd" style="fill:#FFFFFF" transform="translate(0 0.29607200170144665)  rotate(0 6.801875000000001 8.20394362674293)" opacity="1" d="M1.53,16.26L13.13,9.05C13.76,8.66 13.76,7.75 13.13,7.35L1.53,0.15C1.52,0.15 1.51,0.14 1.5,0.13C1.42,0.09 1.35,0.06 1.27,0.04C0.66,-0.14 0,0.32 0,1L0,15.41C0,16.19 0.86,16.67 1.53,16.26Z " /></g></g></svg>