<svg xmlns="http://www.w3.org/2000/svg" xmlns:xlink="http://www.w3.org/1999/xlink" width="18" height="17" viewBox="0 0 18 17" fill="none"><defs><rect id="path_0" x="0" y="0" width="17.999999999999783" height="17" /></defs><g opacity="0.9" transform="translate(0 0)  rotate(0 8.999999999999892 8.5)"><mask id="bg-mask-0" fill="white"><use xlink:href="#path_0"></use></mask><g mask="url(#bg-mask-0)" ><path id="路径 1" fill-rule="evenodd" style="fill:#FFFFFF" transform="translate(0 0)  rotate(0 1 8.5)" opacity="1" d="M0,1L0,16C0,16.55 0.45,17 1,17C1.55,17 2,16.55 2,16L2,1C2,0.45 1.55,0 1,0C0.45,0 0,0.45 0,1Z " /><path id="路径 2" fill-rule="evenodd" style="fill:#FFFFFF" transform="translate(4.396249999999782 0.29607200170144665)  rotate(0 6.801875000000001 8.20394362674293)" opacity="1" d="M13.6,1C13.6,0.32 12.94,-0.14 12.33,0.04C12.26,0.06 12.18,0.09 12.11,0.13C12.1,0.14 12.09,0.15 12.08,0.15L0.47,7.35C-0.16,7.75 -0.16,8.66 0.47,9.05L12.08,16.26C12.74,16.67 13.6,16.19 13.6,15.41L13.6,1Z " /></g></g></svg>