<svg xmlns="http://www.w3.org/2000/svg" xmlns:xlink="http://www.w3.org/1999/xlink" width="18" height="13" viewBox="0 0 18 13" fill="none"><path id="Wifi" fill-rule="evenodd" style="fill:#FFFFFF" transform="translate(0 -0.0025225683020835277)  rotate(0 8.71408 6.260213333333334)" opacity="1" d="M16 5.31L17.32 3.98C17.39 3.91 17.43 3.81 17.43 3.71C17.43 3.62 17.39 3.52 17.32 3.46C12.51 -1.15 4.92 -1.15 0.11 3.46C0.04 3.52 0 3.62 0 3.71C0 3.81 0.04 3.91 0.11 3.98L1.43 5.31C1.56 5.44 1.78 5.44 1.92 5.31C3.75 3.57 6.19 2.6 8.71 2.6C11.24 2.6 13.68 3.57 15.51 5.31C15.65 5.44 15.87 5.44 16 5.31ZM3.14595 6.51565C3.07595 6.57565 3.03595 6.67565 3.03595 6.77565C3.03595 6.86565 3.07595 6.96565 3.14595 7.03565L4.46595 8.36565C4.59595 8.49565 4.81595 8.50565 4.95595 8.37565C5.98595 7.43565 7.32595 6.92565 8.71595 6.92565C10.1059 6.92565 11.4459 7.43565 12.4759 8.37565C12.6159 8.50565 12.8359 8.49565 12.9659 8.36565L14.2859 7.03565C14.3559 6.96565 14.3959 6.86565 14.3959 6.77565C14.3959 6.67565 14.3559 6.57565 14.2759 6.51565C11.1459 3.59565 6.28595 3.59565 3.14595 6.51565ZM6.07189 9.84272C6.07189 9.94272 6.11189 10.0327 6.18189 10.1027L8.46189 12.4027C8.53189 12.4727 8.62189 12.5127 8.71189 12.5127C8.81189 12.5127 8.90189 12.4727 8.97189 12.4027L11.2519 10.1027C11.3219 10.0327 11.3619 9.94272 11.3519 9.84272C11.3519 9.74272 11.3119 9.65272 11.2419 9.58272C9.78189 8.35272 7.65189 8.35272 6.19189 9.58272C6.11189 9.65272 6.07189 9.74272 6.07189 9.84272Z " /></svg>