<svg xmlns="http://www.w3.org/2000/svg" xmlns:xlink="http://www.w3.org/1999/xlink" width="26" height="26" viewBox="0 0 26 26" fill="none"><defs><rect id="path_0" x="0" y="0" width="25.392499999999995" height="25.392499999999995" /></defs><g opacity="1" transform="translate(0 0)  rotate(0 12.696249999999997 12.696249999999997)"><mask id="bg-mask-0" fill="white"><use xlink:href="#path_0"></use></mask><g mask="url(#bg-mask-0)" ><path id="分组 1" fill-rule="evenodd" style="fill:#FFFFFF" transform="translate(0 0)  rotate(0 12.696249999999997 12.696249999999997)" opacity="1" d="M22.5 11.25C22.5 5.04 17.46 0 11.25 0C5.04 0 0 5.04 0 11.25C0 17.46 5.04 22.5 11.25 22.5C13.8 22.5 16.28 21.64 18.27 20.04L23.62 25.39L25.39 23.62L20.04 18.27C21.64 16.28 22.5 13.8 22.5 11.25ZM20 11.25C20 6.41 16.08 2.5 11.25 2.5C6.41 2.5 2.5 6.41 2.5 11.25C2.5 16.08 6.41 20 11.25 20C13.53 20 15.71 19.12 17.34 17.53L17.53 17.34C19.12 15.71 20 13.53 20 11.25Z " /></g></g></svg>